<svg preserveAspectRatio="none" width="100%" height="100%" overflow="visible" style="display: block;" viewBox="0 0 10 10" fill="none" xmlns="http://www.w3.org/2000/svg">
<g id="twemoji:coin" clip-path="url(#clip0_0_44)">
<path id="Vector" d="M4.99957 9.99913C7.60758 9.99913 9.72179 7.88492 9.72179 5.27691C9.72179 2.6689 7.60758 0.554688 4.99957 0.554688C2.39155 0.554688 0.277344 2.6689 0.277344 5.27691C0.277344 7.88492 2.39155 9.99913 4.99957 9.99913Z" fill="var(--fill-0, #F4900C)"/>
<path id="Vector_2" d="M4.99957 9.44444C7.60758 9.44444 9.72179 7.33023 9.72179 4.72222C9.72179 2.11421 7.60758 0 4.99957 0C2.39155 0 0.277344 2.11421 0.277344 4.72222C0.277344 7.33023 2.39155 9.44444 4.99957 9.44444Z" fill="var(--fill-0, #FFCC4D)"/>
<path id="Vector_3" d="M4.99826 8.88325C7.14604 8.88325 8.88715 7.14213 8.88715 4.99436C8.88715 2.84658 7.14604 1.10547 4.99826 1.10547C2.85049 1.10547 1.10938 2.84658 1.10938 4.99436C1.10938 7.14213 2.85049 8.88325 4.99826 8.88325Z" fill="var(--fill-0, #FFE8B6)"/>
<path id="Vector_4" d="M4.99826 8.60981C7.14604 8.60981 8.88715 6.86869 8.88715 4.72092C8.88715 2.57315 7.14604 0.832031 4.99826 0.832031C2.85049 0.832031 1.10938 2.57315 1.10938 4.72092C1.10938 6.86869 2.85049 8.60981 4.99826 8.60981Z" fill="var(--fill-0, #FFAC33)"/>
<path id="Vector_5" d="M2.64844 3.01707C2.64844 2.86568 2.79705 2.80512 2.79705 2.80512L4.98538 1.77734L7.19455 2.80512C7.19455 2.80512 7.34677 2.83901 7.34677 3.01818V3.19623H2.64844V3.01707Z" fill="var(--fill-0, #FFE8B6)"/>
<path id="Vector_6" d="M7.20075 3.56705C7.20075 3.40483 7.06047 3.27344 6.88769 3.27344H3.08964C2.91658 3.27344 2.79602 3.40483 2.79602 3.56705C2.79602 3.67733 2.85269 3.77233 2.94297 3.8226V4.0076H3.53019V3.86066H4.11741V4.0076H4.70464V3.86066H5.29186V4.0076H5.87908V3.86066H6.4663V4.0076H7.0538V3.8151C7.14186 3.76288 7.20075 3.67149 7.20075 3.56705ZM7.64102 6.66816C7.64102 6.72658 7.61782 6.78261 7.57651 6.82392C7.5352 6.86523 7.47917 6.88844 7.42075 6.88844H2.57575C2.51733 6.88844 2.4613 6.86523 2.41999 6.82392C2.37868 6.78261 2.35547 6.72658 2.35547 6.66816C2.35547 6.60974 2.37868 6.55371 2.41999 6.5124C2.4613 6.47109 2.51733 6.44788 2.57575 6.44788H7.42102C7.54241 6.44788 7.64102 6.54649 7.64102 6.66816Z" fill="var(--fill-0, #F4900C)"/>
<path id="Vector_7" d="M7.35001 3.38913C7.35001 3.4281 7.33452 3.46548 7.30697 3.49304C7.27941 3.52059 7.24203 3.53608 7.20306 3.53608H2.79834C2.76093 3.53378 2.7258 3.51729 2.70013 3.48999C2.67445 3.46268 2.66016 3.42661 2.66016 3.38913C2.66016 3.35165 2.67445 3.31558 2.70013 3.28828C2.7258 3.26097 2.76093 3.24449 2.79834 3.24219L7.20306 3.24302C7.22231 3.24295 7.24138 3.24667 7.25919 3.25398C7.27699 3.26128 7.29319 3.27203 7.30683 3.2856C7.32048 3.29917 7.33132 3.3153 7.33873 3.33307C7.34614 3.35083 7.34997 3.36988 7.35001 3.38913ZM3.38584 3.55969H6.61612V3.88913H3.38584V3.55969Z" fill="var(--fill-0, #F4900C)"/>
<path id="Vector_8" d="M3.53281 5.78925C3.53281 5.95148 3.44503 6.08286 3.33698 6.08286H3.14115C3.03309 6.08286 2.94531 5.95148 2.94531 5.78925V3.56314C2.94531 3.40092 3.03309 3.26953 3.14115 3.26953H3.33698C3.44503 3.26953 3.53281 3.40092 3.53281 3.56314V5.78925ZM7.0567 5.78925C7.0567 5.95148 6.9692 6.08286 6.86087 6.08286H6.66503C6.55698 6.08286 6.4692 5.95148 6.4692 5.78925V3.56314C6.4692 3.40092 6.5567 3.26953 6.66503 3.26953H6.86087C6.96892 3.26953 7.0567 3.40092 7.0567 3.56314V5.78925ZM4.70753 5.78925C4.70753 5.95148 4.61976 6.08286 4.5117 6.08286H4.31587C4.20781 6.08286 4.12003 5.95148 4.12003 5.78925V3.56314C4.12003 3.40092 4.20781 3.26953 4.31587 3.26953H4.5117C4.61976 3.26953 4.70753 3.40092 4.70753 3.56314V5.78925ZM5.88198 5.78925C5.88198 5.95148 5.7942 6.08286 5.68615 6.08286H5.49059C5.38253 6.08286 5.29476 5.95148 5.29476 5.78925V3.56314C5.29476 3.40092 5.38253 3.26953 5.49059 3.26953H5.68615C5.7942 3.26953 5.88198 3.40092 5.88198 3.56314V5.78925Z" fill="var(--fill-0, #FFD983)"/>
<path id="Vector_9" d="M7.2016 5.93033C7.2016 6.09255 7.07021 6.22394 6.90799 6.22394H3.09049C3.01262 6.22394 2.93793 6.19301 2.88287 6.13794C2.82781 6.08288 2.79688 6.0082 2.79688 5.93033C2.79688 5.85246 2.82781 5.77778 2.88287 5.72272C2.93793 5.66765 3.01262 5.63672 3.09049 5.63672H6.90799C7.06993 5.63672 7.2016 5.76811 7.2016 5.93033Z" fill="var(--fill-0, #FFCC4D)"/>
<path id="Vector_10" d="M7.49613 6.2233C7.49613 6.38552 7.36474 6.51691 7.20252 6.51691H2.79752C2.71965 6.51691 2.64497 6.48598 2.5899 6.43091C2.53484 6.37585 2.50391 6.30117 2.50391 6.2233C2.50391 6.14543 2.53484 6.07075 2.5899 6.01568C2.64497 5.96062 2.71965 5.92969 2.79752 5.92969H7.20224C7.36446 5.92969 7.49613 6.06108 7.49613 6.2233Z" fill="var(--fill-0, #FFD983)"/>
<path id="Vector_11" d="M7.64102 6.44293C7.64102 6.50136 7.61782 6.55738 7.57651 6.59869C7.5352 6.64 7.47917 6.66321 7.42075 6.66321H2.57575C2.54682 6.66321 2.51818 6.65751 2.49145 6.64644C2.46472 6.63537 2.44044 6.61915 2.41999 6.59869C2.39953 6.57824 2.38331 6.55396 2.37224 6.52723C2.36117 6.50051 2.35547 6.47186 2.35547 6.44293C2.35547 6.41401 2.36117 6.38536 2.37224 6.35864C2.38331 6.33191 2.39953 6.30763 2.41999 6.28717C2.44044 6.26672 2.46472 6.25049 2.49145 6.23942C2.51818 6.22835 2.54682 6.22266 2.57575 6.22266H7.42102C7.54241 6.22266 7.64102 6.32127 7.64102 6.44293Z" fill="var(--fill-0, #FFD983)"/>
<path id="Vector_12" d="M7.2016 3.4108C7.2016 3.24858 7.06132 3.11719 6.88854 3.11719H3.09049C2.91743 3.11719 2.79688 3.24858 2.79688 3.4108C2.79688 3.52108 2.85354 3.61608 2.94382 3.66635V3.85135H3.53104V3.70441H4.11826V3.85135H4.70549V3.70441H5.29271V3.85135H5.87993V3.70441H6.46715V3.85135H7.05465V3.65885C7.14271 3.60663 7.2016 3.51524 7.2016 3.4108Z" fill="var(--fill-0, #FFCC4D)"/>
<path id="Vector_13" d="M2.64844 3.18503C2.64844 3.03365 2.79705 2.97309 2.79705 2.97309L4.98538 1.94531L7.19455 2.97309C7.19455 2.97309 7.34677 3.00698 7.34677 3.18615V3.26698H2.64844V3.18503Z" fill="var(--fill-0, #FFD983)"/>
<path id="Vector_14" d="M5.00016 2.31641C5.00016 2.31641 3.48488 3.03057 3.33377 3.09502C3.18238 3.15918 3.23294 3.26474 3.33405 3.26474H6.65905C6.81516 3.26474 6.77821 3.14557 6.65433 3.08113C6.53044 3.01696 5.00016 2.31641 5.00016 2.31641Z" fill="var(--fill-0, #FFAC33)"/>
<path id="Vector_15" d="M7.35001 3.26413C7.35001 3.3031 7.33452 3.34048 7.30697 3.36804C7.27941 3.39559 7.24203 3.41108 7.20306 3.41108H2.79834C2.76093 3.40878 2.7258 3.39229 2.70013 3.36499C2.67445 3.33768 2.66016 3.30161 2.66016 3.26413C2.66016 3.22665 2.67445 3.19058 2.70013 3.16328C2.7258 3.13597 2.76093 3.11949 2.79834 3.11719L7.20306 3.11802C7.22231 3.11795 7.24138 3.12167 7.25919 3.12898C7.27699 3.13628 7.29319 3.14703 7.30683 3.1606C7.32048 3.17417 7.33132 3.1903 7.33873 3.20807C7.34614 3.22583 7.34997 3.24488 7.35001 3.26413Z" fill="var(--fill-0, #FFD983)"/>
</g>
<defs>
<clipPath id="clip0_0_44">
<rect width="10" height="10" fill="white"/>
</clipPath>
</defs>
</svg>
