<svg preserveAspectRatio="none" width="100%" height="100%" overflow="visible" style="display: block;" viewBox="0 0 24 24" fill="none" xmlns="http://www.w3.org/2000/svg">
<g id="home">
<path id="Vector" opacity="0.9" d="M20.8319 8.01002L14.2819 2.77002C13.0019 1.75002 11.0019 1.74002 9.73192 2.76002L3.18192 8.01002C2.24192 8.76002 1.67192 10.26 1.87192 11.44L3.13192 18.98C3.42192 20.67 4.99192 22 6.70192 22H17.3019C18.9919 22 20.5919 20.64 20.8819 18.97L22.1419 11.43C22.3219 10.26 21.7519 8.76002 20.8319 8.01002Z" fill="var(--fill-0, #01A74B)"/>
<path id="Vector_2" d="M12 19C10.9067 19 10 18.6222 10 18.1667V14.8333C10 14.3778 10.9067 14 12 14C13.0933 14 14 14.3778 14 14.8333V18.1667C14 18.6222 13.0933 19 12 19Z" fill="var(--fill-0, white)"/>
<g id="Vector_3" opacity="0">
</g>
</g>
</svg>
