<svg preserveAspectRatio="none" width="100%" height="100%" overflow="visible" style="display: block;" viewBox="0 0 48 48" fill="none" xmlns="http://www.w3.org/2000/svg">
<g id="Group 1244837645">
<g id="Vector">
<mask id="path-1-inside-1_0_104" fill="white">
<path d="M40.0013 25.418C40.0013 24.2927 39.2981 23.3458 38.3467 23.0688C38.7531 22.6285 39.0049 22.0175 39.0049 21.3438C39.0049 20.0022 38.0067 18.9111 36.7784 18.9111H28.5071C30.6959 14.448 29.2427 11.5277 28.7265 10.7135C28.1762 9.84628 27.3129 9.33203 26.4173 9.33203H26.3975C25.6871 9.33772 25.0738 9.6755 24.7159 10.2561C24.2393 11.0323 24.2501 11.8672 24.2609 12.6737C24.2717 13.5485 24.2843 14.4518 23.7339 15.4575C22.4444 17.8143 20.2431 19.4576 17.191 20.3513V19.2943C17.191 19.0761 17.0238 18.8977 16.8151 18.8977H11.0439C10.837 18.8977 10.668 19.0742 10.668 19.2943V35.5414C10.668 35.7596 10.8352 35.938 11.0439 35.938H16.8151C17.022 35.938 17.191 35.7615 17.191 35.5414V34.1106C18.5111 35.3478 20.0596 35.9987 21.7142 35.9987H34.1454C35.3737 35.9987 36.3719 34.9076 36.3719 33.566C36.3719 32.9341 36.1471 32.3572 35.7838 31.9246C37.0104 31.9246 38.0085 30.8334 38.0085 29.4919C38.0085 28.8599 37.7837 28.2831 37.4204 27.8504H37.7747C39.0031 27.8504 40.0013 26.7596 40.0013 25.418ZM16.441 35.1448H11.4216V19.6891H16.441V35.1448ZM37.2586 29.4918C37.2586 30.3969 36.5968 31.1332 35.7839 31.1332H28.7718C28.565 31.1332 28.3959 31.3097 28.3959 31.5298C28.3959 31.748 28.5632 31.9264 28.7718 31.9264H34.1457C34.9586 31.9264 35.6205 32.6626 35.6205 33.5678C35.6205 34.473 34.9586 35.2092 34.1457 35.2092H21.7146C20.0384 35.2092 18.4773 34.4483 17.1914 33.008V21.1728C20.5419 20.2373 22.9627 18.4517 24.3835 15.8559C25.0364 14.6624 25.0237 13.6016 25.0112 12.6661C25.0022 11.9146 24.9932 11.2638 25.3457 10.6888C25.5633 10.3339 25.9482 10.129 26.4032 10.1252C27.0543 10.1233 27.6891 10.5047 28.1028 11.1556C28.5812 11.9089 29.957 14.7098 27.5489 19.1103C27.4823 19.2337 27.4823 19.3836 27.5489 19.5069C27.6154 19.6303 27.7395 19.7043 27.8744 19.7043H36.7788C37.5917 19.7043 38.2535 20.4405 38.2535 21.3457C38.2535 22.2508 37.5917 22.9871 36.7788 22.9871H31.0273C30.8205 22.9871 30.6514 23.1636 30.6514 23.3837C30.6514 23.6019 30.8187 23.7803 31.0273 23.7803H37.7751C38.588 23.7803 39.2499 24.5165 39.2499 25.4217C39.2499 26.3269 38.588 27.0631 37.7751 27.0631H30.763C30.5562 27.0631 30.3871 27.2396 30.3871 27.4597C30.3871 27.6779 30.5544 27.8563 30.763 27.8563H35.7806C36.5935 27.8563 37.2554 28.5926 37.2554 29.4977L37.2586 29.4918ZM13.5566 23.4991V21.4307C13.5566 21.2125 13.7238 21.0341 13.9324 21.0341C14.1393 21.0341 14.3083 21.2106 14.3083 21.4307V23.4991C14.3083 23.7173 14.1411 23.8957 13.9324 23.8957C13.7256 23.8957 13.5566 23.7192 13.5566 23.4991Z"/>
</mask>
<path d="M40.0013 25.418C40.0013 24.2927 39.2981 23.3458 38.3467 23.0688C38.7531 22.6285 39.0049 22.0175 39.0049 21.3438C39.0049 20.0022 38.0067 18.9111 36.7784 18.9111H28.5071C30.6959 14.448 29.2427 11.5277 28.7265 10.7135C28.1762 9.84628 27.3129 9.33203 26.4173 9.33203H26.3975C25.6871 9.33772 25.0738 9.6755 24.7159 10.2561C24.2393 11.0323 24.2501 11.8672 24.2609 12.6737C24.2717 13.5485 24.2843 14.4518 23.7339 15.4575C22.4444 17.8143 20.2431 19.4576 17.191 20.3513V19.2943C17.191 19.0761 17.0238 18.8977 16.8151 18.8977H11.0439C10.837 18.8977 10.668 19.0742 10.668 19.2943V35.5414C10.668 35.7596 10.8352 35.938 11.0439 35.938H16.8151C17.022 35.938 17.191 35.7615 17.191 35.5414V34.1106C18.5111 35.3478 20.0596 35.9987 21.7142 35.9987H34.1454C35.3737 35.9987 36.3719 34.9076 36.3719 33.566C36.3719 32.9341 36.1471 32.3572 35.7838 31.9246C37.0104 31.9246 38.0085 30.8334 38.0085 29.4919C38.0085 28.8599 37.7837 28.2831 37.4204 27.8504H37.7747C39.0031 27.8504 40.0013 26.7596 40.0013 25.418ZM16.441 35.1448H11.4216V19.6891H16.441V35.1448ZM37.2586 29.4918C37.2586 30.3969 36.5968 31.1332 35.7839 31.1332H28.7718C28.565 31.1332 28.3959 31.3097 28.3959 31.5298C28.3959 31.748 28.5632 31.9264 28.7718 31.9264H34.1457C34.9586 31.9264 35.6205 32.6626 35.6205 33.5678C35.6205 34.473 34.9586 35.2092 34.1457 35.2092H21.7146C20.0384 35.2092 18.4773 34.4483 17.1914 33.008V21.1728C20.5419 20.2373 22.9627 18.4517 24.3835 15.8559C25.0364 14.6624 25.0237 13.6016 25.0112 12.6661C25.0022 11.9146 24.9932 11.2638 25.3457 10.6888C25.5633 10.3339 25.9482 10.129 26.4032 10.1252C27.0543 10.1233 27.6891 10.5047 28.1028 11.1556C28.5812 11.9089 29.957 14.7098 27.5489 19.1103C27.4823 19.2337 27.4823 19.3836 27.5489 19.5069C27.6154 19.6303 27.7395 19.7043 27.8744 19.7043H36.7788C37.5917 19.7043 38.2535 20.4405 38.2535 21.3457C38.2535 22.2508 37.5917 22.9871 36.7788 22.9871H31.0273C30.8205 22.9871 30.6514 23.1636 30.6514 23.3837C30.6514 23.6019 30.8187 23.7803 31.0273 23.7803H37.7751C38.588 23.7803 39.2499 24.5165 39.2499 25.4217C39.2499 26.3269 38.588 27.0631 37.7751 27.0631H30.763C30.5562 27.0631 30.3871 27.2396 30.3871 27.4597C30.3871 27.6779 30.5544 27.8563 30.763 27.8563H35.7806C36.5935 27.8563 37.2554 28.5926 37.2554 29.4977L37.2586 29.4918ZM13.5566 23.4991V21.4307C13.5566 21.2125 13.7238 21.0341 13.9324 21.0341C14.1393 21.0341 14.3083 21.2106 14.3083 21.4307V23.4991C14.3083 23.7173 14.1411 23.8957 13.9324 23.8957C13.7256 23.8957 13.5566 23.7192 13.5566 23.4991Z" fill="var(--fill-0, black)"/>
<path d="M38.3467 23.0688L37.6119 22.3904L36.5161 23.5773L38.0671 24.0289L38.3467 23.0688ZM28.5071 18.9111L27.6092 18.4708L26.9029 19.9111H28.5071V18.9111ZM28.7265 10.7135L29.5711 10.1781L29.5708 10.1777L28.7265 10.7135ZM26.3975 9.33203V8.332L26.3895 8.33206L26.3975 9.33203ZM24.7159 10.2561L23.8646 9.73145L23.8638 9.73284L24.7159 10.2561ZM24.2609 12.6737L25.2608 12.6614L25.2608 12.6603L24.2609 12.6737ZM23.7339 15.4575L22.8567 14.9775L22.8567 14.9775L23.7339 15.4575ZM17.191 20.3513H16.191V21.6861L17.472 21.311L17.191 20.3513ZM17.191 34.1106L17.8749 33.381L16.191 31.8028V34.1106H17.191ZM35.7838 31.9246V30.9246H33.6383L35.018 32.5676L35.7838 31.9246ZM37.4204 27.8504V26.8504H35.275L36.6546 28.4935L37.4204 27.8504ZM16.441 35.1448V36.1448H17.441V35.1448H16.441ZM11.4216 35.1448H10.4216V36.1448H11.4216V35.1448ZM11.4216 19.6891V18.6891H10.4216V19.6891H11.4216ZM16.441 19.6891H17.441V18.6891H16.441V19.6891ZM37.2586 29.4918H38.2586L36.3811 29.0123L37.2586 29.4918ZM17.1914 33.008H16.1914V33.3895L16.4454 33.674L17.1914 33.008ZM17.1914 21.1728L16.9225 20.2097L16.1914 20.4138V21.1728H17.1914ZM24.3835 15.8559L25.2607 16.3361L25.2608 16.3358L24.3835 15.8559ZM25.0112 12.6661L24.0112 12.678L24.0113 12.6795L25.0112 12.6661ZM25.3457 10.6888L24.4932 10.166L24.4932 10.1661L25.3457 10.6888ZM26.4032 10.1252L26.4003 9.12517L26.3948 9.12522L26.4032 10.1252ZM28.1028 11.1556L28.9469 10.6195L28.9468 10.6192L28.1028 11.1556ZM27.5489 19.1103L26.6716 18.6302L26.6688 18.6355L27.5489 19.1103ZM37.2554 29.4977H36.2554L38.1329 29.9772L37.2554 29.4977ZM40.0013 25.418H41.0013C41.0013 23.8866 40.0405 22.5204 38.6262 22.1086L38.3467 23.0688L38.0671 24.0289C38.5558 24.1712 39.0013 24.6988 39.0013 25.418H40.0013ZM38.3467 23.0688L39.0814 23.7471C39.6597 23.1208 40.0049 22.2671 40.0049 21.3438H39.0049H38.0049C38.0049 21.7679 37.8466 22.1362 37.6119 22.3904L38.3467 23.0688ZM39.0049 21.3438H40.0049C40.0049 19.5353 38.6407 17.9111 36.7784 17.9111V18.9111V19.9111C37.3728 19.9111 38.0049 20.4692 38.0049 21.3438H39.0049ZM36.7784 18.9111V17.9111H28.5071V18.9111V19.9111H36.7784V18.9111ZM28.5071 18.9111L29.4049 19.3514C31.7826 14.503 30.2255 11.2103 29.5711 10.1781L28.7265 10.7135L27.8819 11.249C28.2599 11.8451 29.6091 14.393 27.6092 18.4708L28.5071 18.9111ZM28.7265 10.7135L29.5708 10.1777C28.8673 9.0691 27.7081 8.33203 26.4173 8.33203V9.33203V10.332C26.9177 10.332 27.485 10.6235 27.8822 11.2493L28.7265 10.7135ZM26.4173 9.33203V8.33203H26.3975V9.33203V10.332H26.4173V9.33203ZM26.3975 9.33203L26.3895 8.33206C25.351 8.34038 24.4114 8.84436 23.8646 9.73145L24.7159 10.2561L25.5672 10.7808C25.7362 10.5066 26.0231 10.3351 26.4055 10.332L26.3975 9.33203ZM24.7159 10.2561L23.8638 9.73284C23.2139 10.7911 23.2507 11.9176 23.261 12.6871L24.2609 12.6737L25.2608 12.6603C25.2495 11.8168 25.2647 11.2735 25.5681 10.7794L24.7159 10.2561ZM24.2609 12.6737L23.261 12.686C23.2718 13.5634 23.2688 14.2243 22.8567 14.9775L23.7339 15.4575L24.6112 15.9375C25.2997 14.6792 25.2716 13.5336 25.2608 12.6614L24.2609 12.6737ZM23.7339 15.4575L22.8567 14.9775C21.718 17.0586 19.7589 18.5574 16.91 19.3916L17.191 20.3513L17.472 21.311C20.7273 20.3578 23.1709 18.57 24.6112 15.9375L23.7339 15.4575ZM17.191 20.3513H18.191V19.2943H17.191H16.191V20.3513H17.191ZM17.191 19.2943H18.191C18.191 18.5782 17.6289 17.8977 16.8151 17.8977V18.8977V19.8977C16.4186 19.8977 16.191 19.5739 16.191 19.2943H17.191ZM16.8151 18.8977V17.8977H11.0439V18.8977V19.8977H16.8151V18.8977ZM11.0439 18.8977V17.8977C10.2379 17.8977 9.66797 18.5699 9.66797 19.2943H10.668H11.668C11.668 19.5784 11.4361 19.8977 11.0439 19.8977V18.8977ZM10.668 19.2943H9.66797V35.5414H10.668H11.668V19.2943H10.668ZM10.668 35.5414H9.66797C9.66797 36.2575 10.2301 36.938 11.0439 36.938V35.938V34.938C11.4404 34.938 11.668 35.2617 11.668 35.5414H10.668ZM11.0439 35.938V36.938H16.8151V35.938V34.938H11.0439V35.938ZM16.8151 35.938V36.938C17.6211 36.938 18.191 36.2658 18.191 35.5414H17.191H16.191C16.191 35.2572 16.4228 34.938 16.8151 34.938V35.938ZM17.191 35.5414H18.191V34.1106H17.191H16.191V35.5414H17.191ZM17.191 34.1106L16.5072 34.8402C17.9916 36.2315 19.7783 36.9987 21.7142 36.9987V35.9987V34.9987C20.341 34.9987 19.0306 34.4642 17.8749 33.381L17.191 34.1106ZM21.7142 35.9987V36.9987H34.1454V35.9987V34.9987H21.7142V35.9987ZM34.1454 35.9987V36.9987C36.0077 36.9987 37.3719 35.3745 37.3719 33.566H36.3719H35.3719C35.3719 34.4407 34.7398 34.9987 34.1454 34.9987V35.9987ZM36.3719 33.566H37.3719C37.3719 32.696 37.0623 31.8921 36.5496 31.2815L35.7838 31.9246L35.018 32.5676C35.2318 32.8223 35.3719 33.1722 35.3719 33.566H36.3719ZM35.7838 31.9246V32.9246C37.6448 32.9246 39.0085 31.2998 39.0085 29.4919H38.0085H37.0085C37.0085 30.3671 36.3759 30.9246 35.7838 30.9246V31.9246ZM38.0085 29.4919H39.0085C39.0085 28.6219 38.6989 27.818 38.1862 27.2074L37.4204 27.8504L36.6546 28.4935C36.8685 28.7482 37.0085 29.098 37.0085 29.4919H38.0085ZM37.4204 27.8504V28.8504H37.7747V27.8504V26.8504H37.4204V27.8504ZM37.7747 27.8504V28.8504C39.6369 28.8504 41.0013 27.2267 41.0013 25.418H40.0013H39.0013C39.0013 26.2925 38.3693 26.8504 37.7747 26.8504V27.8504ZM16.441 35.1448V34.1448H11.4216V35.1448V36.1448H16.441V35.1448ZM11.4216 35.1448H12.4216V19.6891H11.4216H10.4216V35.1448H11.4216ZM11.4216 19.6891V20.6891H16.441V19.6891V18.6891H11.4216V19.6891ZM16.441 19.6891H15.441V35.1448H16.441H17.441V19.6891H16.441ZM37.2586 29.4918H36.2586C36.2586 29.9479 35.9466 30.1332 35.7839 30.1332V31.1332V32.1332C37.2469 32.1332 38.2586 30.846 38.2586 29.4918H37.2586ZM35.7839 31.1332V30.1332H28.7718V31.1332V32.1332H35.7839V31.1332ZM28.7718 31.1332V30.1332C27.9658 30.1332 27.3959 30.8054 27.3959 31.5298H28.3959H29.3959C29.3959 31.8139 29.1641 32.1332 28.7718 32.1332V31.1332ZM28.3959 31.5298H27.3959C27.3959 32.2459 27.958 32.9264 28.7718 32.9264V31.9264V30.9264C29.1683 30.9264 29.3959 31.2501 29.3959 31.5298H28.3959ZM28.7718 31.9264V32.9264H34.1457V31.9264V30.9264H28.7718V31.9264ZM34.1457 31.9264V32.9264C34.3085 32.9264 34.6205 33.1117 34.6205 33.5678H35.6205H36.6205C36.6205 32.2136 35.6088 30.9264 34.1457 30.9264V31.9264ZM35.6205 33.5678H34.6205C34.6205 34.0239 34.3085 34.2092 34.1457 34.2092V35.2092V36.2092C35.6088 36.2092 36.6205 34.922 36.6205 33.5678H35.6205ZM34.1457 35.2092V34.2092H21.7146V35.2092V36.2092H34.1457V35.2092ZM21.7146 35.2092V34.2092C20.3685 34.2092 19.0659 33.606 17.9373 32.342L17.1914 33.008L16.4454 33.674C17.8888 35.2906 19.7083 36.2092 21.7146 36.2092V35.2092ZM17.1914 33.008H18.1914V21.1728H17.1914H16.1914V33.008H17.1914ZM17.1914 21.1728L17.4603 22.136C21.0199 21.1421 23.6873 19.2105 25.2607 16.3361L24.3835 15.8559L23.5063 15.3758C22.238 17.6928 20.0639 19.3325 16.9225 20.2097L17.1914 21.1728ZM24.3835 15.8559L25.2608 16.3358C26.0498 14.8935 26.0238 13.5969 26.0111 12.6526L25.0112 12.6661L24.0113 12.6795C24.0237 13.6063 24.023 14.4313 23.5062 15.376L24.3835 15.8559ZM25.0112 12.6661L26.0111 12.6541C26.0013 11.8386 26.023 11.4973 26.1982 11.2115L25.3457 10.6888L24.4932 10.1661C23.9634 11.0302 24.003 11.9906 24.0112 12.678L25.0112 12.6661ZM25.3457 10.6888L26.1982 11.2116C26.216 11.1824 26.2624 11.1264 26.4116 11.1251L26.4032 10.1252L26.3948 9.12522C25.6339 9.13163 24.9106 9.48546 24.4932 10.166L25.3457 10.6888ZM26.4032 10.1252L26.4061 11.1252C26.6511 11.1245 26.9927 11.2732 27.2588 11.6919L28.1028 11.1556L28.9468 10.6192C28.3856 9.73617 27.4575 9.1221 26.4003 9.12519L26.4032 10.1252ZM28.1028 11.1556L27.2586 11.6917C27.5794 12.1969 28.8737 14.6064 26.6716 18.6302L27.5489 19.1103L28.4261 19.5904C31.0404 14.8132 29.583 11.621 28.9469 10.6195L28.1028 11.1556ZM27.5489 19.1103L26.6688 18.6355C26.4423 19.0552 26.4423 19.562 26.6688 19.9817L27.5489 19.5069L28.429 19.0321C28.5223 19.2051 28.5223 19.4121 28.429 19.5851L27.5489 19.1103ZM27.5489 19.5069L26.6688 19.9817C26.9062 20.4217 27.3642 20.7043 27.8744 20.7043V19.7043V18.7043C28.1148 18.7043 28.3246 18.8388 28.429 19.0321L27.5489 19.5069ZM27.8744 19.7043V20.7043H36.7788V19.7043V18.7043H27.8744V19.7043ZM36.7788 19.7043V20.7043C36.9415 20.7043 37.2535 20.8896 37.2535 21.3457H38.2535H39.2535C39.2535 19.9915 38.2418 18.7043 36.7788 18.7043V19.7043ZM38.2535 21.3457H37.2535C37.2535 21.8018 36.9415 21.9871 36.7788 21.9871V22.9871V23.9871C38.2418 23.9871 39.2535 22.6999 39.2535 21.3457H38.2535ZM36.7788 22.9871V21.9871H31.0273V22.9871V23.9871H36.7788V22.9871ZM31.0273 22.9871V21.9871C30.2213 21.9871 29.6514 22.6593 29.6514 23.3837H30.6514H31.6514C31.6514 23.6678 31.4196 23.9871 31.0273 23.9871V22.9871ZM30.6514 23.3837H29.6514C29.6514 24.0998 30.2135 24.7803 31.0273 24.7803V23.7803V22.7803C31.4239 22.7803 31.6514 23.1041 31.6514 23.3837H30.6514ZM31.0273 23.7803V24.7803H37.7751V23.7803V22.7803H31.0273V23.7803ZM37.7751 23.7803V24.7803C37.9379 24.7803 38.2499 24.9656 38.2499 25.4217H39.2499H40.2499C40.2499 24.0675 39.2382 22.7803 37.7751 22.7803V23.7803ZM39.2499 25.4217H38.2499C38.2499 25.8778 37.9379 26.0631 37.7751 26.0631V27.0631V28.0631C39.2382 28.0631 40.2499 26.7759 40.2499 25.4217H39.2499ZM37.7751 27.0631V26.0631H30.763V27.0631V28.0631H37.7751V27.0631ZM30.763 27.0631V26.0631C29.9571 26.0631 29.3871 26.7353 29.3871 27.4597H30.3871H31.3871C31.3871 27.7439 31.1553 28.0631 30.763 28.0631V27.0631ZM30.3871 27.4597H29.3871C29.3871 28.1758 29.9492 28.8563 30.763 28.8563V27.8563V26.8563C31.1596 26.8563 31.3871 27.1801 31.3871 27.4597H30.3871ZM30.763 27.8563V28.8563H35.7806V27.8563V26.8563H30.763V27.8563ZM35.7806 27.8563V28.8563C35.9433 28.8563 36.2554 29.0416 36.2554 29.4977H37.2554H38.2554C38.2554 28.1435 37.2437 26.8563 35.7806 26.8563V27.8563ZM37.2554 29.4977L38.1329 29.9772L38.1362 29.9712L37.2586 29.4918L36.3811 29.0123L36.3778 29.0183L37.2554 29.4977ZM13.5566 23.4991H14.5566V21.4307H13.5566H12.5566V23.4991H13.5566ZM13.5566 21.4307H14.5566C14.5566 21.7104 14.329 22.0341 13.9324 22.0341V21.0341V20.0341C13.1186 20.0341 12.5566 20.7147 12.5566 21.4307H13.5566ZM13.9324 21.0341V22.0341C13.5402 22.0341 13.3083 21.7149 13.3083 21.4307H14.3083H15.3083C15.3083 20.7064 14.7384 20.0341 13.9324 20.0341V21.0341ZM14.3083 21.4307H13.3083V23.4991H14.3083H15.3083V21.4307H14.3083ZM14.3083 23.4991H13.3083C13.3083 23.2195 13.5359 22.8957 13.9324 22.8957V23.8957V24.8957C14.7462 24.8957 15.3083 24.2152 15.3083 23.4991H14.3083ZM13.9324 23.8957V22.8957C14.3247 22.8957 14.5566 23.215 14.5566 23.4991H13.5566H12.5566C12.5566 24.2235 13.1265 24.8957 13.9324 24.8957V23.8957Z" fill="var(--stroke-0, #B287FF)" mask="url(#path-1-inside-1_0_104)"/>
</g>
<circle id="Ellipse 54" cx="24" cy="24" r="23.5" stroke="var(--stroke-0, #B287FF)"/>
</g>
</svg>
