<svg preserveAspectRatio="none" width="100%" height="100%" overflow="visible" style="display: block;" viewBox="0 0 48 48" fill="none" xmlns="http://www.w3.org/2000/svg">
<g id="Group 1244837643">
<g id="Vector">
<mask id="path-1-inside-1_0_77" fill="white">
<path fill-rule="evenodd" clip-rule="evenodd" d="M34.516 20.0531V33.9529C34.516 36.5451 32.3959 38.6654 29.8035 38.6654H14.0446C11.4523 38.6654 9.33203 36.5453 9.33203 33.9529V18.1942C9.33203 15.6019 11.4521 13.4816 14.0446 13.4816H27.9444C28.5347 11.0504 30.718 9.33203 33.2281 9.33203C36.2306 9.33203 38.6654 11.7669 38.6654 14.7692C38.6654 17.2792 36.9474 19.4628 34.516 20.0531ZM35.2112 14.413H33.5847V12.7866C33.5847 12.5898 33.4249 12.43 33.2282 12.43C33.0314 12.43 32.8717 12.5898 32.8717 12.7866V14.413H31.2452C31.0485 14.413 30.8887 14.5728 30.8887 14.7695C30.8887 14.9663 31.0485 15.126 31.2452 15.126H32.8717V16.7525C32.8717 16.9492 33.0314 17.109 33.2282 17.109C33.4249 17.109 33.5847 16.9492 33.5847 16.7525V15.126H35.2112C35.4079 15.126 35.5677 14.9663 35.5677 14.7695C35.5677 14.5728 35.4079 14.413 35.2112 14.413ZM27.8206 14.1972H14.0447C11.8471 14.1972 10.0476 15.9965 10.0476 18.1941V33.9541C10.0476 36.1517 11.847 37.9511 14.0447 37.9511H29.8048C32.0024 37.9511 33.8018 36.1517 33.8018 33.9541V20.1771C32.4568 20.319 31.0807 19.9601 29.9623 19.117V26.6302C29.9623 27.4613 29.2838 28.1398 28.4527 28.1398H15.3969C14.5657 28.1398 13.8873 27.4613 13.8873 26.6302V18.0294C13.8873 17.1983 14.5658 16.5198 15.3969 16.5198H28.0794C27.8254 15.771 27.7383 14.9782 27.8206 14.1972ZM29.2455 18.4719C28.8926 18.0927 28.604 17.6766 28.3799 17.2354H15.397C14.9606 17.2354 14.6028 17.5931 14.6028 18.0295V26.6304C14.6028 27.0668 14.9606 27.4245 15.397 27.4245H16.0039C16.0075 27.4174 16.0111 27.409 16.0159 27.4019L20.0581 20.4024C20.194 20.1687 20.5374 20.1639 20.6757 20.4036L22.9651 24.3682L24.216 22.2016C24.3519 21.9679 24.6953 21.9631 24.8337 22.2028L27.8481 27.4233H28.4538C28.8902 27.4233 29.248 27.0655 29.248 26.6291V18.4706L29.2455 18.4719ZM37.9502 14.7695C37.9502 12.1617 35.8361 10.0475 33.2282 10.0475C30.6204 10.0475 28.5062 12.1617 28.5062 14.7695C28.5062 17.3773 30.6204 19.4915 33.2282 19.4915C35.8361 19.4915 37.9502 17.3773 37.9502 14.7695ZM23.9048 27.4244L20.3656 21.2943L16.8265 27.4244H23.9048ZM23.3753 25.0825L24.7275 27.4244H27.0229L24.5236 23.0947L23.3753 25.0825ZM25.5348 21.6139C26.292 21.6139 26.9049 20.9998 26.9049 20.2439C26.9049 19.4867 26.2908 18.8738 25.5348 18.8738C24.7776 18.8738 24.1647 19.4879 24.1647 20.2439C24.1647 21.001 24.7788 21.6139 25.5348 21.6139ZM25.5348 20.8985C25.8961 20.8985 26.1894 20.6051 26.1894 20.2439C26.1894 19.8826 25.8961 19.5892 25.5348 19.5892C25.1735 19.5892 24.8802 19.8826 24.8802 20.2439C24.8802 20.6052 25.1735 20.8985 25.5348 20.8985ZM15.2943 34.6074H29.1048C29.3027 34.6074 29.4625 34.4476 29.4625 34.2497C29.4625 34.0517 29.3027 33.892 29.1048 33.892H15.2943C15.0964 33.892 14.9366 34.0517 14.9366 34.2497C14.9366 34.4476 15.0964 34.6074 15.2943 34.6074ZM15.2943 31.1007H29.1048C29.3027 31.1007 29.4625 30.9409 29.4625 30.7429C29.4625 30.545 29.3027 30.3852 29.1048 30.3852H15.2943C15.0964 30.3852 14.9366 30.545 14.9366 30.7429C14.9366 30.9409 15.0964 31.1007 15.2943 31.1007Z"/>
</mask>
<path fill-rule="evenodd" clip-rule="evenodd" d="M34.516 20.0531V33.9529C34.516 36.5451 32.3959 38.6654 29.8035 38.6654H14.0446C11.4523 38.6654 9.33203 36.5453 9.33203 33.9529V18.1942C9.33203 15.6019 11.4521 13.4816 14.0446 13.4816H27.9444C28.5347 11.0504 30.718 9.33203 33.2281 9.33203C36.2306 9.33203 38.6654 11.7669 38.6654 14.7692C38.6654 17.2792 36.9474 19.4628 34.516 20.0531ZM35.2112 14.413H33.5847V12.7866C33.5847 12.5898 33.4249 12.43 33.2282 12.43C33.0314 12.43 32.8717 12.5898 32.8717 12.7866V14.413H31.2452C31.0485 14.413 30.8887 14.5728 30.8887 14.7695C30.8887 14.9663 31.0485 15.126 31.2452 15.126H32.8717V16.7525C32.8717 16.9492 33.0314 17.109 33.2282 17.109C33.4249 17.109 33.5847 16.9492 33.5847 16.7525V15.126H35.2112C35.4079 15.126 35.5677 14.9663 35.5677 14.7695C35.5677 14.5728 35.4079 14.413 35.2112 14.413ZM27.8206 14.1972H14.0447C11.8471 14.1972 10.0476 15.9965 10.0476 18.1941V33.9541C10.0476 36.1517 11.847 37.9511 14.0447 37.9511H29.8048C32.0024 37.9511 33.8018 36.1517 33.8018 33.9541V20.1771C32.4568 20.319 31.0807 19.9601 29.9623 19.117V26.6302C29.9623 27.4613 29.2838 28.1398 28.4527 28.1398H15.3969C14.5657 28.1398 13.8873 27.4613 13.8873 26.6302V18.0294C13.8873 17.1983 14.5658 16.5198 15.3969 16.5198H28.0794C27.8254 15.771 27.7383 14.9782 27.8206 14.1972ZM29.2455 18.4719C28.8926 18.0927 28.604 17.6766 28.3799 17.2354H15.397C14.9606 17.2354 14.6028 17.5931 14.6028 18.0295V26.6304C14.6028 27.0668 14.9606 27.4245 15.397 27.4245H16.0039C16.0075 27.4174 16.0111 27.409 16.0159 27.4019L20.0581 20.4024C20.194 20.1687 20.5374 20.1639 20.6757 20.4036L22.9651 24.3682L24.216 22.2016C24.3519 21.9679 24.6953 21.9631 24.8337 22.2028L27.8481 27.4233H28.4538C28.8902 27.4233 29.248 27.0655 29.248 26.6291V18.4706L29.2455 18.4719ZM37.9502 14.7695C37.9502 12.1617 35.8361 10.0475 33.2282 10.0475C30.6204 10.0475 28.5062 12.1617 28.5062 14.7695C28.5062 17.3773 30.6204 19.4915 33.2282 19.4915C35.8361 19.4915 37.9502 17.3773 37.9502 14.7695ZM23.9048 27.4244L20.3656 21.2943L16.8265 27.4244H23.9048ZM23.3753 25.0825L24.7275 27.4244H27.0229L24.5236 23.0947L23.3753 25.0825ZM25.5348 21.6139C26.292 21.6139 26.9049 20.9998 26.9049 20.2439C26.9049 19.4867 26.2908 18.8738 25.5348 18.8738C24.7776 18.8738 24.1647 19.4879 24.1647 20.2439C24.1647 21.001 24.7788 21.6139 25.5348 21.6139ZM25.5348 20.8985C25.8961 20.8985 26.1894 20.6051 26.1894 20.2439C26.1894 19.8826 25.8961 19.5892 25.5348 19.5892C25.1735 19.5892 24.8802 19.8826 24.8802 20.2439C24.8802 20.6052 25.1735 20.8985 25.5348 20.8985ZM15.2943 34.6074H29.1048C29.3027 34.6074 29.4625 34.4476 29.4625 34.2497C29.4625 34.0517 29.3027 33.892 29.1048 33.892H15.2943C15.0964 33.892 14.9366 34.0517 14.9366 34.2497C14.9366 34.4476 15.0964 34.6074 15.2943 34.6074ZM15.2943 31.1007H29.1048C29.3027 31.1007 29.4625 30.9409 29.4625 30.7429C29.4625 30.545 29.3027 30.3852 29.1048 30.3852H15.2943C15.0964 30.3852 14.9366 30.545 14.9366 30.7429C14.9366 30.9409 15.0964 31.1007 15.2943 31.1007Z" fill="var(--fill-0, black)"/>
<path d="M34.516 20.0531L34.1621 18.5955L33.016 18.8738V20.0531H34.516ZM27.9444 13.4816V14.9816H29.1239L29.4021 13.8355L27.9444 13.4816ZM33.5847 14.413H32.0847V15.913H33.5847V14.413ZM32.8717 14.413V15.913H34.3717V14.413H32.8717ZM32.8717 15.126H34.3717V13.626H32.8717V15.126ZM33.5847 15.126V13.626H32.0847V15.126H33.5847ZM27.8206 14.1972L29.3123 14.3543L29.4869 12.6972H27.8206V14.1972ZM33.8018 20.1771H35.3018V18.5105L33.6444 18.6853L33.8018 20.1771ZM29.9623 19.117L30.8652 17.9192L28.4623 16.108V19.117H29.9623ZM28.0794 16.5198V18.0198H30.1721L29.4999 16.038L28.0794 16.5198ZM29.2455 18.4719L28.1476 19.4939L28.9384 20.3436L29.9593 19.7912L29.2455 18.4719ZM28.3799 17.2354L29.7172 16.556L29.3003 15.7354H28.3799V17.2354ZM16.0039 27.4245V28.9245H16.931L17.3456 28.0953L16.0039 27.4245ZM16.0159 27.4019L17.2639 28.2339L17.2907 28.1938L17.3148 28.152L16.0159 27.4019ZM20.0581 20.4024L18.7614 19.6482L18.7591 19.6523L20.0581 20.4024ZM20.6757 20.4036L19.3765 21.1533L19.3767 21.1537L20.6757 20.4036ZM22.9651 24.3682L21.6662 25.1183L22.9653 27.368L24.2642 25.1182L22.9651 24.3682ZM24.216 22.2016L22.9194 21.4475L22.917 21.4516L24.216 22.2016ZM24.8337 22.2028L23.5345 22.9526L23.5347 22.9529L24.8337 22.2028ZM27.8481 27.4233L26.5491 28.1733L26.9821 28.9233H27.8481V27.4233ZM29.248 18.4706H30.748V15.9536L28.5342 17.1513L29.248 18.4706ZM23.9048 27.4244V28.9244H26.5028L25.2038 26.6744L23.9048 27.4244ZM20.3656 21.2943L21.6647 20.5443L20.3656 18.2943L19.0666 20.5443L20.3656 21.2943ZM16.8265 27.4244L15.5274 26.6744L14.2284 28.9244H16.8265V27.4244ZM23.3753 25.0825L22.0765 24.3322L21.6432 25.0824L22.0763 25.8326L23.3753 25.0825ZM24.7275 27.4244L23.4285 28.1744L23.8615 28.9244H24.7275V27.4244ZM27.0229 27.4244V28.9244H29.6207L28.322 26.6745L27.0229 27.4244ZM24.5236 23.0947L25.8227 22.3448L24.5241 20.0951L23.2248 22.3444L24.5236 23.0947ZM34.516 20.0531H33.016V33.9529H34.516H36.016V20.0531H34.516ZM34.516 33.9529H33.016C33.016 35.7167 31.5675 37.1654 29.8035 37.1654V38.6654V40.1654C33.2244 40.1654 36.016 37.3735 36.016 33.9529H34.516ZM29.8035 38.6654V37.1654H14.0446V38.6654V40.1654H29.8035V38.6654ZM14.0446 38.6654V37.1654C12.2807 37.1654 10.832 35.7168 10.832 33.9529H9.33203H7.83203C7.83203 37.3738 10.6239 40.1654 14.0446 40.1654V38.6654ZM9.33203 33.9529H10.832V18.1942H9.33203H7.83203V33.9529H9.33203ZM9.33203 18.1942H10.832C10.832 16.4303 12.2806 14.9816 14.0446 14.9816V13.4816V11.9816C10.6237 11.9816 7.83203 14.7735 7.83203 18.1942H9.33203ZM14.0446 13.4816V14.9816H27.9444V13.4816V11.9816H14.0446V13.4816ZM27.9444 13.4816L29.4021 13.8355C29.8289 12.0775 31.4094 10.832 33.2281 10.832V9.33203V7.83203C30.0265 7.83203 27.2405 10.0233 26.4868 13.1278L27.9444 13.4816ZM33.2281 9.33203V10.832C35.4022 10.832 37.1654 12.5953 37.1654 14.7692H38.6654H40.1654C40.1654 10.9385 37.059 7.83203 33.2281 7.83203V9.33203ZM38.6654 14.7692H37.1654C37.1654 16.588 35.9201 18.1686 34.1621 18.5955L34.516 20.0531L34.8699 21.5108C37.9747 20.7569 40.1654 17.9705 40.1654 14.7692H38.6654ZM35.2112 14.413V12.913H33.5847V14.413V15.913H35.2112V14.413ZM33.5847 14.413H35.0847V12.7866H33.5847H32.0847V14.413H33.5847ZM33.5847 12.7866H35.0847C35.0847 11.7614 34.2534 10.93 33.2282 10.93V12.43V13.93C32.5965 13.93 32.0847 13.4182 32.0847 12.7866H33.5847ZM33.2282 12.43V10.93C32.203 10.93 31.3717 11.7614 31.3717 12.7866H32.8717H34.3717C34.3717 13.4182 33.8599 13.93 33.2282 13.93V12.43ZM32.8717 12.7866H31.3717V14.413H32.8717H34.3717V12.7866H32.8717ZM32.8717 14.413V12.913H31.2452V14.413V15.913H32.8717V14.413ZM31.2452 14.413V12.913C30.2201 12.913 29.3887 13.7443 29.3887 14.7695H30.8887H32.3887C32.3887 15.4012 31.8769 15.913 31.2452 15.913V14.413ZM30.8887 14.7695H29.3887C29.3887 15.7947 30.22 16.626 31.2452 16.626V15.126V13.626C31.8769 13.626 32.3887 14.1378 32.3887 14.7695H30.8887ZM31.2452 15.126V16.626H32.8717V15.126V13.626H31.2452V15.126ZM32.8717 15.126H31.3717V16.7525H32.8717H34.3717V15.126H32.8717ZM32.8717 16.7525H31.3717C31.3717 17.7776 32.203 18.609 33.2282 18.609V17.109V15.609C33.8599 15.609 34.3717 16.1208 34.3717 16.7525H32.8717ZM33.2282 17.109V18.609C34.2534 18.609 35.0847 17.7777 35.0847 16.7525H33.5847H32.0847C32.0847 16.1208 32.5965 15.609 33.2282 15.609V17.109ZM33.5847 16.7525H35.0847V15.126H33.5847H32.0847V16.7525H33.5847ZM33.5847 15.126V16.626H35.2112V15.126V13.626H33.5847V15.126ZM35.2112 15.126V16.626C36.2363 16.626 37.0677 15.7947 37.0677 14.7695H35.5677H34.0677C34.0677 14.1378 34.5795 13.626 35.2112 13.626V15.126ZM35.5677 14.7695H37.0677C37.0677 13.7443 36.2363 12.913 35.2112 12.913V14.413V15.913C34.5795 15.913 34.0677 15.4012 34.0677 14.7695H35.5677ZM27.8206 14.1972V12.6972H14.0447V14.1972V15.6972H27.8206V14.1972ZM14.0447 14.1972V12.6972C11.0187 12.6972 8.54764 15.168 8.54764 18.1941H10.0476H11.5476C11.5476 16.8249 12.6755 15.6972 14.0447 15.6972V14.1972ZM10.0476 18.1941H8.54764V33.9541H10.0476H11.5476V18.1941H10.0476ZM10.0476 33.9541H8.54764C8.54764 36.9801 11.0185 39.4511 14.0447 39.4511V37.9511V36.4511C12.6754 36.4511 11.5476 35.3232 11.5476 33.9541H10.0476ZM14.0447 37.9511V39.4511H29.8048V37.9511V36.4511H14.0447V37.9511ZM29.8048 37.9511V39.4511C32.8308 39.4511 35.3018 36.9802 35.3018 33.9541H33.8018H32.3018C32.3018 35.3233 31.174 36.4511 29.8048 36.4511V37.9511ZM33.8018 33.9541H35.3018V20.1771H33.8018H32.3018V33.9541H33.8018ZM33.8018 20.1771L33.6444 18.6853C32.667 18.7885 31.672 18.5274 30.8652 17.9192L29.9623 19.117L29.0594 20.3148C30.4894 21.3927 32.2465 21.8495 33.9592 21.6688L33.8018 20.1771ZM29.9623 19.117H28.4623V26.6302H29.9623H31.4623V19.117H29.9623ZM29.9623 26.6302H28.4623C28.4623 26.6318 28.4621 26.6321 28.4623 26.6315C28.4624 26.631 28.4625 26.6307 28.4625 26.6307C28.4624 26.631 28.4613 26.6332 28.4585 26.636C28.4557 26.6388 28.4535 26.6399 28.4532 26.64C28.4532 26.64 28.4535 26.6399 28.454 26.6398C28.4546 26.6397 28.4543 26.6398 28.4527 26.6398V28.1398V29.6398C30.1122 29.6398 31.4623 28.2898 31.4623 26.6302H29.9623ZM28.4527 28.1398V26.6398H15.3969V28.1398V29.6398H28.4527V28.1398ZM15.3969 28.1398V26.6398C15.3953 26.6398 15.395 26.6397 15.3956 26.6398C15.396 26.6399 15.3964 26.64 15.3964 26.64C15.3961 26.6399 15.3939 26.6388 15.3911 26.636C15.3883 26.6332 15.3872 26.631 15.3871 26.6307C15.3871 26.6307 15.3872 26.631 15.3873 26.6315C15.3874 26.6321 15.3873 26.6318 15.3873 26.6302H13.8873H12.3873C12.3873 28.2897 13.7373 29.6398 15.3969 29.6398V28.1398ZM13.8873 26.6302H15.3873V18.0294H13.8873H12.3873V26.6302H13.8873ZM13.8873 18.0294H15.3873C15.3873 18.0278 15.3874 18.0275 15.3873 18.0281C15.3872 18.0286 15.3871 18.0289 15.3871 18.0289C15.3872 18.0286 15.3883 18.0264 15.3911 18.0236C15.3939 18.0208 15.3961 18.0197 15.3964 18.0196C15.3964 18.0196 15.396 18.0198 15.3956 18.0198C15.395 18.02 15.3953 18.0198 15.3969 18.0198V16.5198V15.0198C13.7374 15.0198 12.3873 16.3698 12.3873 18.0294H13.8873ZM15.3969 16.5198V18.0198H28.0794V16.5198V15.0198H15.3969V16.5198ZM28.0794 16.5198L29.4999 16.038C29.3159 15.4954 29.2527 14.9207 29.3123 14.3543L27.8206 14.1972L26.3289 14.04C26.224 15.0357 26.3349 16.0466 26.6589 17.0016L28.0794 16.5198ZM29.2455 18.4719L30.3435 17.4499C30.0862 17.1734 29.8781 16.8726 29.7172 16.556L28.3799 17.2354L27.0426 17.9148C27.33 18.4805 27.699 19.012 28.1476 19.4939L29.2455 18.4719ZM28.3799 17.2354V15.7354H15.397V17.2354V18.7354H28.3799V17.2354ZM15.397 17.2354V15.7354C14.1322 15.7354 13.1028 16.7647 13.1028 18.0295H14.6028H16.1028C16.1028 18.4216 15.789 18.7354 15.397 18.7354V17.2354ZM14.6028 18.0295H13.1028V26.6304H14.6028H16.1028V18.0295H14.6028ZM14.6028 26.6304H13.1028C13.1028 27.8952 14.1322 28.9245 15.397 28.9245V27.4245V25.9245C15.789 25.9245 16.1028 26.2384 16.1028 26.6304H14.6028ZM15.397 27.4245V28.9245H16.0039V27.4245V25.9245H15.397V27.4245ZM16.0039 27.4245L17.3456 28.0953C17.3497 28.0872 17.3529 28.0805 17.355 28.0762C17.3569 28.0723 17.3586 28.0687 17.3587 28.0685C17.3603 28.0653 17.3562 28.0737 17.3511 28.084C17.3417 28.1028 17.3117 28.1622 17.2639 28.2339L16.0159 27.4019L14.7678 26.5698C14.7152 26.6487 14.6811 26.7158 14.6678 26.7424C14.6607 26.7565 14.6548 26.7688 14.6545 26.7695C14.6524 26.7739 14.6569 26.7646 14.6623 26.7537L16.0039 27.4245ZM16.0159 27.4019L17.3148 28.152L21.357 21.1525L20.0581 20.4024L18.7591 19.6523L14.7169 26.6517L16.0159 27.4019ZM20.0581 20.4024L21.3547 21.1566C20.922 21.9005 19.8252 21.9308 19.3765 21.1533L20.6757 20.4036L21.9749 19.6538C21.2496 18.3971 19.466 18.4369 18.7614 19.6482L20.0581 20.4024ZM20.6757 20.4036L19.3767 21.1537L21.6662 25.1183L22.9651 24.3682L24.2641 23.6181L21.9747 19.6535L20.6757 20.4036ZM22.9651 24.3682L24.2642 25.1182L25.515 22.9516L24.216 22.2016L22.917 21.4516L21.6661 23.6182L22.9651 24.3682ZM24.216 22.2016L25.5126 22.9558C25.0799 23.6997 23.9831 23.73 23.5345 22.9526L24.8337 22.2028L26.1328 21.4531C25.4076 20.1963 23.624 20.2361 22.9194 21.4475L24.216 22.2016ZM24.8337 22.2028L23.5347 22.9529L26.5491 28.1733L27.8481 27.4233L29.1471 26.6732L26.1327 21.4527L24.8337 22.2028ZM27.8481 27.4233V28.9233H28.4538V27.4233V25.9233H27.8481V27.4233ZM28.4538 27.4233V28.9233C29.7187 28.9233 30.748 27.894 30.748 26.6291H29.248H27.748C27.748 26.2371 28.0618 25.9233 28.4538 25.9233V27.4233ZM29.248 26.6291H30.748V18.4706H29.248H27.748V26.6291H29.248ZM29.248 18.4706L28.5342 17.1513L28.5318 17.1526L29.2455 18.4719L29.9593 19.7912L29.9617 19.7899L29.248 18.4706ZM37.9502 14.7695H39.4502C39.4502 11.3333 36.6645 8.54754 33.2282 8.54754V10.0475V11.5475C35.0077 11.5475 36.4502 12.9902 36.4502 14.7695H37.9502ZM33.2282 10.0475V8.54754C29.7919 8.54754 27.0062 11.3332 27.0062 14.7695H28.5062H30.0062C30.0062 12.9901 31.4488 11.5475 33.2282 11.5475V10.0475ZM28.5062 14.7695H27.0062C27.0062 18.2058 29.7919 20.9915 33.2282 20.9915V19.4915V17.9915C31.4488 17.9915 30.0062 16.5489 30.0062 14.7695H28.5062ZM33.2282 19.4915V20.9915C36.6645 20.9915 39.4502 18.2058 39.4502 14.7695H37.9502H36.4502C36.4502 16.5489 35.0077 17.9915 33.2282 17.9915V19.4915ZM23.9048 27.4244L25.2038 26.6744L21.6647 20.5443L20.3656 21.2943L19.0666 22.0443L22.6057 28.1744L23.9048 27.4244ZM20.3656 21.2943L19.0666 20.5443L15.5274 26.6744L16.8265 27.4244L18.1255 28.1744L21.6647 22.0443L20.3656 21.2943ZM16.8265 27.4244V28.9244H23.9048V27.4244V25.9244H16.8265V27.4244ZM23.3753 25.0825L22.0763 25.8326L23.4285 28.1744L24.7275 27.4244L26.0265 26.6744L24.6743 24.3325L23.3753 25.0825ZM24.7275 27.4244V28.9244H27.0229V27.4244V25.9244H24.7275V27.4244ZM27.0229 27.4244L28.322 26.6745L25.8227 22.3448L24.5236 23.0947L23.2245 23.8446L25.7238 28.1743L27.0229 27.4244ZM24.5236 23.0947L23.2248 22.3444L22.0765 24.3322L23.3753 25.0825L24.6742 25.8328L25.8225 23.845L24.5236 23.0947ZM25.5348 21.6139V23.1139C27.1212 23.1139 28.4049 21.8274 28.4049 20.2439H26.9049H25.4049C25.4049 20.1723 25.4627 20.1139 25.5348 20.1139V21.6139ZM26.9049 20.2439H28.4049C28.4049 18.6574 27.1183 17.3738 25.5348 17.3738V18.8738V20.3738C25.4632 20.3738 25.4049 20.316 25.4049 20.2439H26.9049ZM25.5348 18.8738V17.3738C23.9483 17.3738 22.6647 18.6603 22.6647 20.2439H24.1647H25.6647C25.6647 20.3155 25.6069 20.3738 25.5348 20.3738V18.8738ZM24.1647 20.2439H22.6647C22.6647 21.8303 23.9512 23.1139 25.5348 23.1139V21.6139V20.1139C25.6063 20.1139 25.6647 20.1717 25.6647 20.2439H24.1647ZM25.5348 20.8985V22.3985C26.7245 22.3985 27.6894 21.4336 27.6894 20.2439H26.1894H24.6894C24.6894 19.7767 25.0676 19.3985 25.5348 19.3985V20.8985ZM26.1894 20.2439H27.6894C27.6894 19.0541 26.7245 18.0892 25.5348 18.0892V19.5892V21.0892C25.0677 21.0892 24.6894 20.711 24.6894 20.2439H26.1894ZM25.5348 19.5892V18.0892C24.3451 18.0892 23.3802 19.0541 23.3802 20.2439H24.8802H26.3802C26.3802 20.711 26.0019 21.0892 25.5348 21.0892V19.5892ZM24.8802 20.2439H23.3802C23.3802 21.4336 24.3451 22.3985 25.5348 22.3985V20.8985V19.3985C26.0019 19.3985 26.3802 19.7767 26.3802 20.2439H24.8802ZM15.2943 34.6074V36.1074H29.1048V34.6074V33.1074H15.2943V34.6074ZM29.1048 34.6074V36.1074C30.1311 36.1074 30.9625 35.2761 30.9625 34.2497H29.4625H27.9625C27.9625 33.6192 28.4743 33.1074 29.1048 33.1074V34.6074ZM29.4625 34.2497H30.9625C30.9625 33.2233 30.1311 32.392 29.1048 32.392V33.892V35.392C28.4743 35.392 27.9625 34.8802 27.9625 34.2497H29.4625ZM29.1048 33.892V32.392H15.2943V33.892V35.392H29.1048V33.892ZM15.2943 33.892V32.392C14.268 32.392 13.4366 33.2233 13.4366 34.2497H14.9366H16.4366C16.4366 34.8802 15.9248 35.392 15.2943 35.392V33.892ZM14.9366 34.2497H13.4366C13.4366 35.276 14.268 36.1074 15.2943 36.1074V34.6074V33.1074C15.9248 33.1074 16.4366 33.6192 16.4366 34.2497H14.9366ZM15.2943 31.1007V32.6007H29.1048V31.1007V29.6007H15.2943V31.1007ZM29.1048 31.1007V32.6007C30.1311 32.6007 30.9625 31.7694 30.9625 30.7429H29.4625H27.9625C27.9625 30.1124 28.4743 29.6007 29.1048 29.6007V31.1007ZM29.4625 30.7429H30.9625C30.9625 29.7165 30.1311 28.8852 29.1048 28.8852V30.3852V31.8852C28.4743 31.8852 27.9625 31.3734 27.9625 30.7429H29.4625ZM29.1048 30.3852V28.8852H15.2943V30.3852V31.8852H29.1048V30.3852ZM15.2943 30.3852V28.8852C14.268 28.8852 13.4366 29.7165 13.4366 30.7429H14.9366H16.4366C16.4366 31.3734 15.9248 31.8852 15.2943 31.8852V30.3852ZM14.9366 30.7429H13.4366C13.4366 31.7693 14.268 32.6007 15.2943 32.6007V31.1007V29.6007C15.9248 29.6007 16.4366 30.1124 16.4366 30.7429H14.9366Z" fill="var(--stroke-0, #2E9EEE)" mask="url(#path-1-inside-1_0_77)"/>
</g>
<circle id="Ellipse 52" cx="24" cy="24" r="23.5" stroke="var(--stroke-0, #2E9EEE)"/>
</g>
</svg>
