<svg preserveAspectRatio="none" width="100%" height="100%" overflow="visible" style="display: block;" viewBox="0 0 22 21" fill="none" xmlns="http://www.w3.org/2000/svg">
<g id="Vector">
<mask id="path-1-inside-1_0_94" fill="white">
<path fill-rule="evenodd" clip-rule="evenodd" d="M4.11475 11.7564C3.60584 11.7616 3.13987 11.997 2.7885 12.381C2.48677 12.7106 2.26812 13.1488 2.18027 13.6423H6.36719C6.27839 13.1488 6.06069 12.7106 5.75896 12.381C5.40759 11.9981 4.94162 11.7616 4.43271 11.7564C4.38019 11.7636 4.32768 11.7677 4.27325 11.7677C4.21883 11.7677 4.16631 11.7636 4.1138 11.7564H4.11475ZM4.15485 11.1811H4.39356C4.53201 11.1544 4.65613 11.0828 4.7516 10.9804C4.87382 10.8493 4.94925 10.6691 4.94925 10.4695C4.94925 10.2699 4.87382 10.0897 4.7516 9.95862C4.62939 9.82757 4.46134 9.74669 4.27515 9.74669C4.08897 9.74669 3.92092 9.82757 3.7987 9.95862C3.67648 10.0897 3.60105 10.2699 3.60105 10.4695C3.60105 10.6692 3.67648 10.8493 3.7987 10.9804C3.89418 11.0828 4.01735 11.1544 4.15675 11.1811H4.15485ZM8.91276 11.7564C8.40385 11.7616 7.93789 11.997 7.58651 12.381C7.28478 12.7106 7.06614 13.1488 6.97829 13.6423H11.1652C11.0764 13.1488 10.8587 12.7106 10.557 12.381C10.2056 11.9981 9.73964 11.7616 9.23072 11.7564C9.17821 11.7636 9.12569 11.7677 9.07127 11.7677C9.01685 11.7677 8.96433 11.7636 8.91182 11.7564H8.91276ZM8.95191 11.1811H9.19062C9.32907 11.1544 9.45319 11.0828 9.54866 10.9804C9.67088 10.8493 9.74631 10.6691 9.74631 10.4695C9.74631 10.2699 9.67088 10.0897 9.54866 9.95862C9.42645 9.82757 9.2584 9.74669 9.07221 9.74669C8.88603 9.74669 8.71798 9.82757 8.59576 9.95862C8.47354 10.0897 8.39811 10.2699 8.39811 10.4695C8.39811 10.6692 8.47354 10.8493 8.59576 10.9804C8.69125 11.0828 8.81442 11.1544 8.95381 11.1811H8.95191ZM13.7098 11.7564C13.2009 11.7616 12.7349 11.997 12.3836 12.381C12.0818 12.7106 11.8632 13.1488 11.7753 13.6423H15.9623C15.8735 13.1488 15.6558 12.7106 15.354 12.381C15.0027 11.9981 14.5367 11.7616 14.0278 11.7564C13.9753 11.7636 13.9228 11.7677 13.8683 11.7677C13.8139 11.7677 13.7614 11.7636 13.7089 11.7564H13.7098ZM13.7499 11.1811H13.9886C14.1271 11.1544 14.2512 11.0828 14.3467 10.9804C14.4689 10.8493 14.5443 10.6691 14.5443 10.4695C14.5443 10.2699 14.4689 10.0897 14.3467 9.95862C14.2245 9.82757 14.0564 9.74669 13.8702 9.74669C13.684 9.74669 13.516 9.82757 13.3938 9.95862C13.2716 10.0897 13.1961 10.2699 13.1961 10.4695C13.1961 10.6692 13.2716 10.8493 13.3938 10.9804C13.4893 11.0828 13.6124 11.1544 13.7518 11.1811H13.7499ZM8.09079 9.70879C7.94661 9.92277 7.86163 10.1849 7.86163 10.4695C7.86163 10.7951 7.9743 11.094 8.15954 11.3223C7.80052 11.4575 7.47589 11.6837 7.20664 11.9786C6.99085 12.2141 6.81039 12.4936 6.67385 12.8038C6.53826 12.4936 6.35684 12.2141 6.14106 11.9786C5.87083 11.6837 5.5462 11.4575 5.18815 11.3223C5.37339 11.094 5.48607 10.7961 5.48607 10.4705C5.48607 10.1859 5.40109 9.92379 5.25691 9.70982C5.40587 9.56034 5.57392 9.43747 5.75438 9.34432C5.98832 9.22556 6.24516 9.15798 6.51443 9.15491C6.56694 9.16208 6.61946 9.16617 6.67388 9.16617C6.72831 9.16617 6.78082 9.16208 6.83334 9.15491C7.10356 9.15798 7.36039 9.22453 7.59338 9.34432C7.77384 9.43646 7.9419 9.56035 8.09085 9.70982L8.09079 9.70879ZM6.55351 8.57951H6.79222C6.93067 8.55289 7.05479 8.48122 7.15027 8.37884C7.27248 8.24779 7.34791 8.0676 7.34791 7.86796C7.34791 7.66832 7.27248 7.48812 7.15027 7.35708C7.02805 7.22603 6.86 7.14514 6.67381 7.14514C6.48763 7.14514 6.31958 7.22603 6.19736 7.35708C6.07515 7.48812 5.99972 7.66832 5.99972 7.86796C5.99972 8.0676 6.07515 8.24779 6.19736 8.37884C6.29285 8.48122 6.41602 8.55289 6.55541 8.57951H6.55351ZM12.8878 9.70879C12.7436 9.92277 12.6586 10.1849 12.6586 10.4695C12.6586 10.7951 12.7713 11.094 12.9565 11.3223C12.5975 11.4575 12.2729 11.6837 12.0036 11.9786C11.7879 12.2141 11.6064 12.4936 11.4708 12.8038C11.3353 12.4936 11.1538 12.2141 10.9381 11.9786C10.6678 11.6837 10.3432 11.4575 9.98515 11.3223C10.1704 11.094 10.2831 10.7961 10.2831 10.4695C10.2831 10.1849 10.1981 9.92277 10.0539 9.70879C10.2029 9.55932 10.3709 9.43645 10.5514 9.3433C10.7853 9.22453 11.0422 9.15696 11.3114 9.15389C11.3639 9.16105 11.4165 9.16515 11.4709 9.16515C11.5253 9.16515 11.5778 9.16105 11.6303 9.15389C11.9006 9.15696 12.1574 9.22351 12.3904 9.34227C12.5708 9.43441 12.7389 9.5583 12.8879 9.70777L12.8878 9.70879ZM11.3515 8.57951H11.5902C11.7286 8.55289 11.8527 8.48122 11.9482 8.37884C12.0704 8.24779 12.1459 8.0676 12.1459 7.86796C12.1459 7.66832 12.0704 7.48812 11.9482 7.35708C11.826 7.22603 11.658 7.14514 11.4718 7.14514C11.2856 7.14514 11.1175 7.22603 10.9953 7.35708C10.8731 7.48812 10.7977 7.66832 10.7977 7.86796C10.7977 8.0676 10.8731 8.24779 10.9953 8.37884C11.0908 8.48122 11.214 8.55289 11.3524 8.57951H11.3515ZM9.64903 9.32896C9.84763 9.12215 10.0749 8.95117 10.3222 8.82523C10.3986 8.78632 10.4778 8.75151 10.558 8.7208C10.3728 8.49249 10.2601 8.19456 10.2601 7.86795C10.2601 7.50961 10.3957 7.18505 10.6143 6.94958C10.833 6.71513 11.1357 6.56975 11.4708 6.56975C11.805 6.56975 12.1077 6.71513 12.3273 6.94958C12.5459 7.18404 12.6815 7.50859 12.6815 7.86795C12.6815 8.19456 12.5688 8.49248 12.3836 8.7208C12.4638 8.75049 12.5421 8.7853 12.6194 8.82523C12.8667 8.95116 13.093 9.12214 13.2926 9.32896C13.4645 9.22862 13.6611 9.17231 13.8703 9.17231C14.2044 9.17231 14.5071 9.3177 14.7267 9.55215C14.9454 9.7866 15.081 10.1112 15.081 10.4705C15.081 10.7961 14.9683 11.095 14.783 11.3223C15.1421 11.4575 15.4667 11.6838 15.736 11.9786C16.1866 12.47 16.4845 13.1519 16.5351 13.9106C16.5456 14.0693 16.4349 14.2065 16.2869 14.2177C16.2802 14.2188 16.2745 14.2188 16.2678 14.2188V14.2198L1.87574 14.2177C1.72774 14.2177 1.60742 14.0887 1.60742 13.93C1.60742 13.9167 1.60838 13.9044 1.61029 13.8921C1.66471 13.1406 1.96166 12.466 2.40851 11.9786C2.67874 11.6837 3.00337 11.4575 3.36142 11.3223C3.17618 11.094 3.0635 10.7961 3.0635 10.4695C3.0635 10.1111 3.19908 9.78659 3.41773 9.55112C3.63639 9.31666 3.93906 9.17128 4.27421 9.17128C4.48331 9.17128 4.68002 9.22862 4.85188 9.32793C5.05048 9.12112 5.27773 8.95014 5.52503 8.8242C5.60141 8.78529 5.68066 8.75049 5.76087 8.71977C5.57563 8.49146 5.46295 8.19353 5.46295 7.86692C5.46295 7.50858 5.59853 7.18402 5.81718 6.94855C6.03584 6.7141 6.33851 6.56872 6.67366 6.56872C7.00785 6.56872 7.31053 6.7141 7.53013 6.94855C7.74878 7.18301 7.88436 7.50756 7.88436 7.86692C7.88436 8.19353 7.77169 8.49145 7.58645 8.71977C7.66665 8.74946 7.74495 8.78427 7.82229 8.8242C8.06958 8.95013 8.29588 9.12111 8.49543 9.32793C8.6673 9.2276 8.86399 9.17128 9.07311 9.17128C9.28221 9.17128 9.47892 9.22862 9.65078 9.32793L9.64903 9.32896ZM19.5946 4.13624C19.7426 4.13624 19.8629 4.26525 19.8629 4.42395C19.8629 4.58264 19.7426 4.71166 19.5946 4.71166H18.1432V6.26787C18.1432 6.42657 18.0229 6.55558 17.8749 6.55558C17.7269 6.55558 17.6066 6.42658 17.6066 6.26787V4.71166H16.1553C16.0073 4.71166 15.887 4.58265 15.887 4.42395C15.887 4.26526 16.0073 4.13624 16.1553 4.13624H17.6066V2.58003C17.6066 2.42134 17.7269 2.29232 17.8749 2.29232C18.0229 2.29232 18.1432 2.42132 18.1432 2.58003V4.13624H19.5946ZM20.4129 1.7026C19.7636 1.00641 18.8661 0.575361 17.8749 0.575361C16.8837 0.575361 15.9863 1.00638 15.3369 1.7026C14.9617 2.10497 14.6686 2.59641 14.489 3.14517C14.3582 3.54547 14.2866 3.9755 14.2866 4.42392C14.2866 5.48666 14.6886 6.44906 15.3379 7.1453C15.9872 7.84155 16.8847 8.27254 17.8758 8.27254C18.867 8.27254 19.7645 7.84152 20.4138 7.1453C21.0631 6.44909 21.4651 5.48671 21.4651 4.42392C21.4651 3.36119 21.0631 2.39879 20.4138 1.70255L20.4129 1.7026ZM17.6068 8.83773V16.2226C17.6068 16.4663 17.5141 16.6875 17.3642 16.8482C17.2143 17.0089 17.0081 17.1083 16.7808 17.1083H9.31704C9.26166 17.1083 9.2101 17.1267 9.16713 17.1574L4.2259 20.2166V17.3959C4.2259 17.2372 4.10559 17.1082 3.95758 17.1082H1.3634C1.13615 17.1082 0.92992 17.0089 0.780008 16.8481C0.630097 16.6874 0.537483 16.4663 0.537483 16.2226V4.2263C0.537483 3.98263 0.630102 3.76149 0.780008 3.60075C0.929915 3.44 1.13615 3.3407 1.3634 3.3407H13.8755C13.7943 3.68675 13.7504 4.0502 13.7504 4.4239C13.7504 5.64534 14.2125 6.75106 14.9583 7.5518C15.6457 8.28895 16.5746 8.7671 17.6068 8.83773ZM17.8751 0C19.0142 0 20.0454 0.495525 20.7922 1.29514C21.5388 2.09577 22 3.20149 22 4.42303C22 5.64457 21.5379 6.75019 20.7922 7.55093C20.1047 8.28808 19.1756 8.76621 18.1435 8.83684V16.2218C18.1435 16.6241 17.9897 16.9886 17.7434 17.2538C17.4961 17.5189 17.1562 17.6828 16.7809 17.6828H9.38778L4.09235 20.9611C3.96441 21.041 3.80113 20.9939 3.72666 20.8567C3.70183 20.8116 3.69037 20.7614 3.69037 20.7123H3.68942V17.6819H1.36253C0.98727 17.6819 0.64736 17.5171 0.400066 17.2529C0.152771 16.9878 0 16.6233 0 16.2209V4.22672C0 3.82434 0.153727 3.45987 0.400066 3.1947C0.64736 2.92953 0.98727 2.76572 1.36253 2.76572H14.0492C14.2583 2.2108 14.5695 1.71221 14.9582 1.29652C15.7048 0.495887 16.736 0.00138401 17.8752 0.00138401L17.8751 0Z"/>
</mask>
<path fill-rule="evenodd" clip-rule="evenodd" d="M4.11475 11.7564C3.60584 11.7616 3.13987 11.997 2.7885 12.381C2.48677 12.7106 2.26812 13.1488 2.18027 13.6423H6.36719C6.27839 13.1488 6.06069 12.7106 5.75896 12.381C5.40759 11.9981 4.94162 11.7616 4.43271 11.7564C4.38019 11.7636 4.32768 11.7677 4.27325 11.7677C4.21883 11.7677 4.16631 11.7636 4.1138 11.7564H4.11475ZM4.15485 11.1811H4.39356C4.53201 11.1544 4.65613 11.0828 4.7516 10.9804C4.87382 10.8493 4.94925 10.6691 4.94925 10.4695C4.94925 10.2699 4.87382 10.0897 4.7516 9.95862C4.62939 9.82757 4.46134 9.74669 4.27515 9.74669C4.08897 9.74669 3.92092 9.82757 3.7987 9.95862C3.67648 10.0897 3.60105 10.2699 3.60105 10.4695C3.60105 10.6692 3.67648 10.8493 3.7987 10.9804C3.89418 11.0828 4.01735 11.1544 4.15675 11.1811H4.15485ZM8.91276 11.7564C8.40385 11.7616 7.93789 11.997 7.58651 12.381C7.28478 12.7106 7.06614 13.1488 6.97829 13.6423H11.1652C11.0764 13.1488 10.8587 12.7106 10.557 12.381C10.2056 11.9981 9.73964 11.7616 9.23072 11.7564C9.17821 11.7636 9.12569 11.7677 9.07127 11.7677C9.01685 11.7677 8.96433 11.7636 8.91182 11.7564H8.91276ZM8.95191 11.1811H9.19062C9.32907 11.1544 9.45319 11.0828 9.54866 10.9804C9.67088 10.8493 9.74631 10.6691 9.74631 10.4695C9.74631 10.2699 9.67088 10.0897 9.54866 9.95862C9.42645 9.82757 9.2584 9.74669 9.07221 9.74669C8.88603 9.74669 8.71798 9.82757 8.59576 9.95862C8.47354 10.0897 8.39811 10.2699 8.39811 10.4695C8.39811 10.6692 8.47354 10.8493 8.59576 10.9804C8.69125 11.0828 8.81442 11.1544 8.95381 11.1811H8.95191ZM13.7098 11.7564C13.2009 11.7616 12.7349 11.997 12.3836 12.381C12.0818 12.7106 11.8632 13.1488 11.7753 13.6423H15.9623C15.8735 13.1488 15.6558 12.7106 15.354 12.381C15.0027 11.9981 14.5367 11.7616 14.0278 11.7564C13.9753 11.7636 13.9228 11.7677 13.8683 11.7677C13.8139 11.7677 13.7614 11.7636 13.7089 11.7564H13.7098ZM13.7499 11.1811H13.9886C14.1271 11.1544 14.2512 11.0828 14.3467 10.9804C14.4689 10.8493 14.5443 10.6691 14.5443 10.4695C14.5443 10.2699 14.4689 10.0897 14.3467 9.95862C14.2245 9.82757 14.0564 9.74669 13.8702 9.74669C13.684 9.74669 13.516 9.82757 13.3938 9.95862C13.2716 10.0897 13.1961 10.2699 13.1961 10.4695C13.1961 10.6692 13.2716 10.8493 13.3938 10.9804C13.4893 11.0828 13.6124 11.1544 13.7518 11.1811H13.7499ZM8.09079 9.70879C7.94661 9.92277 7.86163 10.1849 7.86163 10.4695C7.86163 10.7951 7.9743 11.094 8.15954 11.3223C7.80052 11.4575 7.47589 11.6837 7.20664 11.9786C6.99085 12.2141 6.81039 12.4936 6.67385 12.8038C6.53826 12.4936 6.35684 12.2141 6.14106 11.9786C5.87083 11.6837 5.5462 11.4575 5.18815 11.3223C5.37339 11.094 5.48607 10.7961 5.48607 10.4705C5.48607 10.1859 5.40109 9.92379 5.25691 9.70982C5.40587 9.56034 5.57392 9.43747 5.75438 9.34432C5.98832 9.22556 6.24516 9.15798 6.51443 9.15491C6.56694 9.16208 6.61946 9.16617 6.67388 9.16617C6.72831 9.16617 6.78082 9.16208 6.83334 9.15491C7.10356 9.15798 7.36039 9.22453 7.59338 9.34432C7.77384 9.43646 7.9419 9.56035 8.09085 9.70982L8.09079 9.70879ZM6.55351 8.57951H6.79222C6.93067 8.55289 7.05479 8.48122 7.15027 8.37884C7.27248 8.24779 7.34791 8.0676 7.34791 7.86796C7.34791 7.66832 7.27248 7.48812 7.15027 7.35708C7.02805 7.22603 6.86 7.14514 6.67381 7.14514C6.48763 7.14514 6.31958 7.22603 6.19736 7.35708C6.07515 7.48812 5.99972 7.66832 5.99972 7.86796C5.99972 8.0676 6.07515 8.24779 6.19736 8.37884C6.29285 8.48122 6.41602 8.55289 6.55541 8.57951H6.55351ZM12.8878 9.70879C12.7436 9.92277 12.6586 10.1849 12.6586 10.4695C12.6586 10.7951 12.7713 11.094 12.9565 11.3223C12.5975 11.4575 12.2729 11.6837 12.0036 11.9786C11.7879 12.2141 11.6064 12.4936 11.4708 12.8038C11.3353 12.4936 11.1538 12.2141 10.9381 11.9786C10.6678 11.6837 10.3432 11.4575 9.98515 11.3223C10.1704 11.094 10.2831 10.7961 10.2831 10.4695C10.2831 10.1849 10.1981 9.92277 10.0539 9.70879C10.2029 9.55932 10.3709 9.43645 10.5514 9.3433C10.7853 9.22453 11.0422 9.15696 11.3114 9.15389C11.3639 9.16105 11.4165 9.16515 11.4709 9.16515C11.5253 9.16515 11.5778 9.16105 11.6303 9.15389C11.9006 9.15696 12.1574 9.22351 12.3904 9.34227C12.5708 9.43441 12.7389 9.5583 12.8879 9.70777L12.8878 9.70879ZM11.3515 8.57951H11.5902C11.7286 8.55289 11.8527 8.48122 11.9482 8.37884C12.0704 8.24779 12.1459 8.0676 12.1459 7.86796C12.1459 7.66832 12.0704 7.48812 11.9482 7.35708C11.826 7.22603 11.658 7.14514 11.4718 7.14514C11.2856 7.14514 11.1175 7.22603 10.9953 7.35708C10.8731 7.48812 10.7977 7.66832 10.7977 7.86796C10.7977 8.0676 10.8731 8.24779 10.9953 8.37884C11.0908 8.48122 11.214 8.55289 11.3524 8.57951H11.3515ZM9.64903 9.32896C9.84763 9.12215 10.0749 8.95117 10.3222 8.82523C10.3986 8.78632 10.4778 8.75151 10.558 8.7208C10.3728 8.49249 10.2601 8.19456 10.2601 7.86795C10.2601 7.50961 10.3957 7.18505 10.6143 6.94958C10.833 6.71513 11.1357 6.56975 11.4708 6.56975C11.805 6.56975 12.1077 6.71513 12.3273 6.94958C12.5459 7.18404 12.6815 7.50859 12.6815 7.86795C12.6815 8.19456 12.5688 8.49248 12.3836 8.7208C12.4638 8.75049 12.5421 8.7853 12.6194 8.82523C12.8667 8.95116 13.093 9.12214 13.2926 9.32896C13.4645 9.22862 13.6611 9.17231 13.8703 9.17231C14.2044 9.17231 14.5071 9.3177 14.7267 9.55215C14.9454 9.7866 15.081 10.1112 15.081 10.4705C15.081 10.7961 14.9683 11.095 14.783 11.3223C15.1421 11.4575 15.4667 11.6838 15.736 11.9786C16.1866 12.47 16.4845 13.1519 16.5351 13.9106C16.5456 14.0693 16.4349 14.2065 16.2869 14.2177C16.2802 14.2188 16.2745 14.2188 16.2678 14.2188V14.2198L1.87574 14.2177C1.72774 14.2177 1.60742 14.0887 1.60742 13.93C1.60742 13.9167 1.60838 13.9044 1.61029 13.8921C1.66471 13.1406 1.96166 12.466 2.40851 11.9786C2.67874 11.6837 3.00337 11.4575 3.36142 11.3223C3.17618 11.094 3.0635 10.7961 3.0635 10.4695C3.0635 10.1111 3.19908 9.78659 3.41773 9.55112C3.63639 9.31666 3.93906 9.17128 4.27421 9.17128C4.48331 9.17128 4.68002 9.22862 4.85188 9.32793C5.05048 9.12112 5.27773 8.95014 5.52503 8.8242C5.60141 8.78529 5.68066 8.75049 5.76087 8.71977C5.57563 8.49146 5.46295 8.19353 5.46295 7.86692C5.46295 7.50858 5.59853 7.18402 5.81718 6.94855C6.03584 6.7141 6.33851 6.56872 6.67366 6.56872C7.00785 6.56872 7.31053 6.7141 7.53013 6.94855C7.74878 7.18301 7.88436 7.50756 7.88436 7.86692C7.88436 8.19353 7.77169 8.49145 7.58645 8.71977C7.66665 8.74946 7.74495 8.78427 7.82229 8.8242C8.06958 8.95013 8.29588 9.12111 8.49543 9.32793C8.6673 9.2276 8.86399 9.17128 9.07311 9.17128C9.28221 9.17128 9.47892 9.22862 9.65078 9.32793L9.64903 9.32896ZM19.5946 4.13624C19.7426 4.13624 19.8629 4.26525 19.8629 4.42395C19.8629 4.58264 19.7426 4.71166 19.5946 4.71166H18.1432V6.26787C18.1432 6.42657 18.0229 6.55558 17.8749 6.55558C17.7269 6.55558 17.6066 6.42658 17.6066 6.26787V4.71166H16.1553C16.0073 4.71166 15.887 4.58265 15.887 4.42395C15.887 4.26526 16.0073 4.13624 16.1553 4.13624H17.6066V2.58003C17.6066 2.42134 17.7269 2.29232 17.8749 2.29232C18.0229 2.29232 18.1432 2.42132 18.1432 2.58003V4.13624H19.5946ZM20.4129 1.7026C19.7636 1.00641 18.8661 0.575361 17.8749 0.575361C16.8837 0.575361 15.9863 1.00638 15.3369 1.7026C14.9617 2.10497 14.6686 2.59641 14.489 3.14517C14.3582 3.54547 14.2866 3.9755 14.2866 4.42392C14.2866 5.48666 14.6886 6.44906 15.3379 7.1453C15.9872 7.84155 16.8847 8.27254 17.8758 8.27254C18.867 8.27254 19.7645 7.84152 20.4138 7.1453C21.0631 6.44909 21.4651 5.48671 21.4651 4.42392C21.4651 3.36119 21.0631 2.39879 20.4138 1.70255L20.4129 1.7026ZM17.6068 8.83773V16.2226C17.6068 16.4663 17.5141 16.6875 17.3642 16.8482C17.2143 17.0089 17.0081 17.1083 16.7808 17.1083H9.31704C9.26166 17.1083 9.2101 17.1267 9.16713 17.1574L4.2259 20.2166V17.3959C4.2259 17.2372 4.10559 17.1082 3.95758 17.1082H1.3634C1.13615 17.1082 0.92992 17.0089 0.780008 16.8481C0.630097 16.6874 0.537483 16.4663 0.537483 16.2226V4.2263C0.537483 3.98263 0.630102 3.76149 0.780008 3.60075C0.929915 3.44 1.13615 3.3407 1.3634 3.3407H13.8755C13.7943 3.68675 13.7504 4.0502 13.7504 4.4239C13.7504 5.64534 14.2125 6.75106 14.9583 7.5518C15.6457 8.28895 16.5746 8.7671 17.6068 8.83773ZM17.8751 0C19.0142 0 20.0454 0.495525 20.7922 1.29514C21.5388 2.09577 22 3.20149 22 4.42303C22 5.64457 21.5379 6.75019 20.7922 7.55093C20.1047 8.28808 19.1756 8.76621 18.1435 8.83684V16.2218C18.1435 16.6241 17.9897 16.9886 17.7434 17.2538C17.4961 17.5189 17.1562 17.6828 16.7809 17.6828H9.38778L4.09235 20.9611C3.96441 21.041 3.80113 20.9939 3.72666 20.8567C3.70183 20.8116 3.69037 20.7614 3.69037 20.7123H3.68942V17.6819H1.36253C0.98727 17.6819 0.64736 17.5171 0.400066 17.2529C0.152771 16.9878 0 16.6233 0 16.2209V4.22672C0 3.82434 0.153727 3.45987 0.400066 3.1947C0.64736 2.92953 0.98727 2.76572 1.36253 2.76572H14.0492C14.2583 2.2108 14.5695 1.71221 14.9582 1.29652C15.7048 0.495887 16.736 0.00138401 17.8752 0.00138401L17.8751 0Z" fill="var(--fill-0, black)" stroke="var(--stroke-0, #FFC39B)" stroke-width="3" mask="url(#path-1-inside-1_0_94)"/>
</g>
</svg>
