<svg preserveAspectRatio="none" width="100%" height="100%" overflow="visible" style="display: block;" viewBox="0 0 22 20" fill="none" xmlns="http://www.w3.org/2000/svg">
<g id="Vector">
<mask id="path-1-inside-1_0_107" fill="white">
<path d="M22 12.0645C22 11.2205 21.4726 10.5103 20.759 10.3025C21.0639 9.97237 21.2527 9.51408 21.2527 9.00885C21.2527 8.00266 20.5041 7.18432 19.5828 7.18432H13.3793C15.0209 3.83696 13.931 1.64674 13.5439 1.03611C13.1312 0.385689 12.4837 0 11.812 0H11.7971C11.2643 0.00426932 10.8044 0.257598 10.536 0.693081C10.1785 1.27518 10.1866 1.90137 10.1947 2.50625C10.2028 3.16235 10.2122 3.8398 9.79948 4.59409C8.83234 6.36172 7.18135 7.5942 4.89229 8.26444V7.47171C4.89229 7.30804 4.76684 7.17426 4.61037 7.17426H0.281914C0.126794 7.17426 0 7.30662 0 7.47171V19.657C0 19.8207 0.125444 19.9545 0.281914 19.9545H4.61037C4.76549 19.9545 4.89229 19.8221 4.89229 19.657V18.5839C5.88236 19.5119 7.04374 20 8.28468 20H17.608C18.5293 20 19.2779 19.1817 19.2779 18.1755C19.2779 17.7015 19.1093 17.2689 18.8369 16.9444C19.7568 16.9444 20.5054 16.1261 20.5054 15.1199C20.5054 14.6459 20.3368 14.2133 20.0643 13.8888H20.3301C21.2514 13.8888 22 13.0706 22 12.0645ZM4.32981 19.3596H0.56524V7.76781H4.32981V19.3596ZM19.943 15.1198C19.943 15.7987 19.4466 16.3509 18.8369 16.3509H13.5779C13.4227 16.3509 13.2959 16.4832 13.2959 16.6483C13.2959 16.812 13.4214 16.9458 13.5779 16.9458H17.6083C18.218 16.9458 18.7144 17.4979 18.7144 18.1768C18.7144 18.8557 18.218 19.4079 17.6083 19.4079H8.28495C7.02782 19.4079 5.85701 18.8372 4.89256 17.757V8.88061C7.40548 8.17897 9.22102 6.83974 10.2866 4.89293C10.7763 3.99775 10.7668 3.20218 10.7574 2.50054C10.7507 1.93694 10.7439 1.4488 11.0083 1.01757C11.1715 0.75143 11.4602 0.597741 11.8014 0.594863C12.2897 0.593439 12.7659 0.879502 13.0761 1.36766C13.4349 1.93268 14.4668 4.03331 12.6607 7.33371C12.6108 7.42621 12.6108 7.53865 12.6607 7.63116C12.7106 7.72366 12.8036 7.77917 12.9048 7.77917H19.5831C20.1928 7.77917 20.6892 8.33136 20.6892 9.01023C20.6892 9.6891 20.1928 10.2413 19.5831 10.2413H15.2695C15.1144 10.2413 14.9876 10.3737 14.9876 10.5387C14.9876 10.7024 15.113 10.8362 15.2695 10.8362H20.3304C20.94 10.8362 21.4364 11.3884 21.4364 12.0673C21.4364 12.7461 20.94 13.2983 20.3304 13.2983H15.0713C14.9162 13.2983 14.7894 13.4307 14.7894 13.5958C14.7894 13.7594 14.9148 13.8932 15.0713 13.8932H18.8345C19.4442 13.8932 19.9405 14.4454 19.9405 15.1243L19.943 15.1198ZM2.16644 10.6253V9.07403C2.16644 8.91037 2.29189 8.77658 2.44836 8.77658C2.60348 8.77658 2.73027 8.90894 2.73027 9.07403V10.6253C2.73027 10.789 2.60483 10.9228 2.44836 10.9228C2.29324 10.9228 2.16644 10.7904 2.16644 10.6253Z"/>
</mask>
<path d="M22 12.0645C22 11.2205 21.4726 10.5103 20.759 10.3025C21.0639 9.97237 21.2527 9.51408 21.2527 9.00885C21.2527 8.00266 20.5041 7.18432 19.5828 7.18432H13.3793C15.0209 3.83696 13.931 1.64674 13.5439 1.03611C13.1312 0.385689 12.4837 0 11.812 0H11.7971C11.2643 0.00426932 10.8044 0.257598 10.536 0.693081C10.1785 1.27518 10.1866 1.90137 10.1947 2.50625C10.2028 3.16235 10.2122 3.8398 9.79948 4.59409C8.83234 6.36172 7.18135 7.5942 4.89229 8.26444V7.47171C4.89229 7.30804 4.76684 7.17426 4.61037 7.17426H0.281914C0.126794 7.17426 0 7.30662 0 7.47171V19.657C0 19.8207 0.125444 19.9545 0.281914 19.9545H4.61037C4.76549 19.9545 4.89229 19.8221 4.89229 19.657V18.5839C5.88236 19.5119 7.04374 20 8.28468 20H17.608C18.5293 20 19.2779 19.1817 19.2779 18.1755C19.2779 17.7015 19.1093 17.2689 18.8369 16.9444C19.7568 16.9444 20.5054 16.1261 20.5054 15.1199C20.5054 14.6459 20.3368 14.2133 20.0643 13.8888H20.3301C21.2514 13.8888 22 13.0706 22 12.0645ZM4.32981 19.3596H0.56524V7.76781H4.32981V19.3596ZM19.943 15.1198C19.943 15.7987 19.4466 16.3509 18.8369 16.3509H13.5779C13.4227 16.3509 13.2959 16.4832 13.2959 16.6483C13.2959 16.812 13.4214 16.9458 13.5779 16.9458H17.6083C18.218 16.9458 18.7144 17.4979 18.7144 18.1768C18.7144 18.8557 18.218 19.4079 17.6083 19.4079H8.28495C7.02782 19.4079 5.85701 18.8372 4.89256 17.757V8.88061C7.40548 8.17897 9.22102 6.83974 10.2866 4.89293C10.7763 3.99775 10.7668 3.20218 10.7574 2.50054C10.7507 1.93694 10.7439 1.4488 11.0083 1.01757C11.1715 0.75143 11.4602 0.597741 11.8014 0.594863C12.2897 0.593439 12.7659 0.879502 13.0761 1.36766C13.4349 1.93268 14.4668 4.03331 12.6607 7.33371C12.6108 7.42621 12.6108 7.53865 12.6607 7.63116C12.7106 7.72366 12.8036 7.77917 12.9048 7.77917H19.5831C20.1928 7.77917 20.6892 8.33136 20.6892 9.01023C20.6892 9.6891 20.1928 10.2413 19.5831 10.2413H15.2695C15.1144 10.2413 14.9876 10.3737 14.9876 10.5387C14.9876 10.7024 15.113 10.8362 15.2695 10.8362H20.3304C20.94 10.8362 21.4364 11.3884 21.4364 12.0673C21.4364 12.7461 20.94 13.2983 20.3304 13.2983H15.0713C14.9162 13.2983 14.7894 13.4307 14.7894 13.5958C14.7894 13.7594 14.9148 13.8932 15.0713 13.8932H18.8345C19.4442 13.8932 19.9405 14.4454 19.9405 15.1243L19.943 15.1198ZM2.16644 10.6253V9.07403C2.16644 8.91037 2.29189 8.77658 2.44836 8.77658C2.60348 8.77658 2.73027 8.90894 2.73027 9.07403V10.6253C2.73027 10.789 2.60483 10.9228 2.44836 10.9228C2.29324 10.9228 2.16644 10.7904 2.16644 10.6253Z" fill="var(--fill-0, black)"/>
<path d="M20.759 10.3025L20.0243 9.6242L18.9285 10.8111L20.4795 11.2627L20.759 10.3025ZM13.3793 7.18432L12.4815 6.74401L11.7752 8.18432H13.3793V7.18432ZM13.5439 1.03611L14.3885 0.500652L14.3882 0.500296L13.5439 1.03611ZM11.7971 0V-1.00003L11.7891 -0.999968L11.7971 0ZM10.536 0.693081L9.68466 0.168388L9.6838 0.169784L10.536 0.693081ZM10.1947 2.50625L11.1946 2.49391L11.1946 2.49288L10.1947 2.50625ZM9.79948 4.59409L8.92223 4.11406L8.92221 4.1141L9.79948 4.59409ZM4.89229 8.26444H3.89229V9.59922L5.17329 9.22414L4.89229 8.26444ZM4.89229 18.5839L5.57613 17.8543L3.89229 16.2761V18.5839H4.89229ZM18.8369 16.9444V15.9444H16.6914L18.071 17.5874L18.8369 16.9444ZM20.0643 13.8888V12.8888H17.9189L19.2985 14.5318L20.0643 13.8888ZM4.32981 19.3596V20.3596H5.32981V19.3596H4.32981ZM0.56524 19.3596H-0.43476V20.3596H0.56524V19.3596ZM0.56524 7.76781V6.76781H-0.43476V7.76781H0.56524ZM4.32981 7.76781H5.32981V6.76781H4.32981V7.76781ZM19.943 15.1198H20.943L19.0654 14.6403L19.943 15.1198ZM4.89256 17.757H3.89256V18.1385L4.14662 18.423L4.89256 17.757ZM4.89256 8.88061L4.62363 7.91745L3.89256 8.12158V8.88061H4.89256ZM10.2866 4.89293L11.1638 5.37308L11.164 5.37282L10.2866 4.89293ZM10.7574 2.50054L9.75747 2.5125L9.75749 2.51397L10.7574 2.50054ZM11.0083 1.01757L10.1558 0.49478L10.1558 0.4949L11.0083 1.01757ZM11.8014 0.594863L11.7985 -0.405148L11.793 -0.405102L11.8014 0.594863ZM13.0761 1.36766L13.9203 0.831577L13.9201 0.831303L13.0761 1.36766ZM12.6607 7.33371L11.7834 6.85364L11.7806 6.85891L12.6607 7.33371ZM19.9405 15.1243H18.9405L20.8181 15.6038L19.9405 15.1243ZM22 12.0645H23C23 10.8144 22.215 9.68496 21.0386 9.34242L20.759 10.3025L20.4795 11.2627C20.7303 11.3357 21 11.6266 21 12.0645H22ZM20.759 10.3025L21.4938 10.9809C21.9704 10.4647 22.2527 9.76369 22.2527 9.00885H21.2527H20.2527C20.2527 9.26448 20.1573 9.48008 20.0243 9.6242L20.759 10.3025ZM21.2527 9.00885H22.2527C22.2527 7.53573 21.138 6.18432 19.5828 6.18432V7.18432V8.18432C19.8701 8.18432 20.2527 8.46959 20.2527 9.00885H21.2527ZM19.5828 7.18432V6.18432H13.3793V7.18432V8.18432H19.5828V7.18432ZM13.3793 7.18432L14.2772 7.62463C16.1077 3.89198 14.9138 1.32932 14.3885 0.500652L13.5439 1.03611L12.6993 1.57156C12.9482 1.96415 13.9341 3.78194 12.4815 6.74401L13.3793 7.18432ZM13.5439 1.03611L14.3882 0.500296C13.8223 -0.391497 12.8789 -1 11.812 -1V0V1C12.0885 1 12.44 1.16287 12.6996 1.57192L13.5439 1.03611ZM11.812 0V-1H11.7971V0V1H11.812V0ZM11.7971 0L11.7891 -0.999968C10.9283 -0.99307 10.1419 -0.573539 9.68466 0.168389L10.536 0.693081L11.3872 1.21777C11.4668 1.08874 11.6004 1.00161 11.8051 0.999968L11.7971 0ZM10.536 0.693081L9.6838 0.169784C9.15312 1.03396 9.18719 1.95173 9.19478 2.51962L10.1947 2.50625L11.1946 2.49288C11.186 1.85102 11.2039 1.51641 11.3881 1.21638L10.536 0.693081ZM10.1947 2.50625L9.19477 2.51858C9.20289 3.17724 9.19675 3.61237 8.92223 4.11406L9.79948 4.59409L10.6767 5.07412C11.2277 4.06723 11.2027 3.14746 11.1946 2.49391L10.1947 2.50625ZM9.79948 4.59409L8.92221 4.1141C8.10591 5.60603 6.69716 6.69398 4.61128 7.30473L4.89229 8.26444L5.17329 9.22414C7.66553 8.49442 9.55877 7.1174 10.6768 5.07408L9.79948 4.59409ZM4.89229 8.26444H5.89229V7.47171H4.89229H3.89229V8.26444H4.89229ZM4.89229 7.47171H5.89229C5.89229 6.81018 5.37202 6.17426 4.61037 6.17426V7.17426V8.17426C4.16166 8.17426 3.89229 7.8059 3.89229 7.47171H4.89229ZM4.61037 7.17426V6.17426H0.281914V7.17426V8.17426H4.61037V7.17426ZM0.281914 7.17426V6.17426C-0.472323 6.17426 -1 6.80236 -1 7.47171H0H1C1 7.81088 0.725912 8.17426 0.281914 8.17426V7.17426ZM0 7.47171H-1V19.657H0H1V7.47171H0ZM0 19.657H-1C-1 20.3186 -0.479728 20.9545 0.281914 20.9545V19.9545V18.9545C0.730617 18.9545 1 19.3228 1 19.657H0ZM0.281914 19.9545V20.9545H4.61037V19.9545V18.9545H0.281914V19.9545ZM4.61037 19.9545V20.9545C5.36461 20.9545 5.89229 20.3264 5.89229 19.657H4.89229H3.89229C3.89229 19.3178 4.16638 18.9545 4.61037 18.9545V19.9545ZM4.89229 19.657H5.89229V18.5839H4.89229H3.89229V19.657H4.89229ZM4.89229 18.5839L4.20845 19.3136C5.36289 20.3955 6.76238 21 8.28468 21V20V19C7.3251 19 6.40183 18.6282 5.57613 17.8543L4.89229 18.5839ZM8.28468 20V21H17.608V20V19H8.28468V20ZM17.608 20V21C19.1633 21 20.2779 19.6486 20.2779 18.1755H19.2779H18.2779C18.2779 18.7147 17.8954 19 17.608 19V20ZM19.2779 18.1755H20.2779C20.2779 17.4635 20.0246 16.8038 19.6027 16.3014L18.8369 16.9444L18.071 17.5874C18.1941 17.734 18.2779 17.9396 18.2779 18.1755H19.2779ZM18.8369 16.9444V17.9444C20.3913 17.9444 21.5054 16.5924 21.5054 15.1199H20.5054H19.5054C19.5054 15.6597 19.1224 15.9444 18.8369 15.9444V16.9444ZM20.5054 15.1199H21.5054C21.5054 14.4079 21.252 13.7482 20.8302 13.2458L20.0643 13.8888L19.2985 14.5318C19.4216 14.6784 19.5054 14.884 19.5054 15.1199H20.5054ZM20.0643 13.8888V14.8888H20.3301V13.8888V12.8888H20.0643V13.8888ZM20.3301 13.8888V14.8888C21.8851 14.8888 23 13.5377 23 12.0645H22H21C21 12.6035 20.6176 12.8888 20.3301 12.8888V13.8888ZM4.32981 19.3596V18.3596H0.56524V19.3596V20.3596H4.32981V19.3596ZM0.56524 19.3596H1.56524V7.76781H0.56524H-0.43476V19.3596H0.56524ZM0.56524 7.76781V8.76781H4.32981V7.76781V6.76781H0.56524V7.76781ZM4.32981 7.76781H3.32981V19.3596H4.32981H5.32981V7.76781H4.32981ZM19.943 15.1198H18.943C18.943 15.2156 18.908 15.2845 18.8748 15.3215C18.8586 15.3395 18.8457 15.347 18.8404 15.3495C18.8391 15.3501 18.8382 15.3505 18.8376 15.3507C18.8373 15.3508 18.8372 15.3508 18.837 15.3509C18.8369 15.3509 18.8369 15.3509 18.8369 15.3509C18.8369 15.3509 18.8369 15.3509 18.837 15.3509C18.837 15.3509 18.8371 15.3509 18.8371 15.3509C18.8373 15.3508 18.8373 15.3509 18.8369 15.3509V16.3509V17.3509C20.0968 17.3509 20.943 16.2477 20.943 15.1198H19.943ZM18.8369 16.3509V15.3509H13.5779V16.3509V17.3509H18.8369V16.3509ZM13.5779 16.3509V15.3509C12.8236 15.3509 12.2959 15.979 12.2959 16.6483H13.2959H14.2959C14.2959 16.9875 14.0219 17.3509 13.5779 17.3509V16.3509ZM13.2959 16.6483H12.2959C12.2959 17.3099 12.8162 17.9458 13.5779 17.9458V16.9458V15.9458C14.0266 15.9458 14.2959 16.3141 14.2959 16.6483H13.2959ZM13.5779 16.9458V17.9458H17.6083V16.9458V15.9458H13.5779V16.9458ZM17.6083 16.9458V17.9458C17.6086 17.9458 17.6087 17.9458 17.6085 17.9458C17.6085 17.9457 17.6084 17.9457 17.6083 17.9457C17.6083 17.9457 17.6082 17.9457 17.6082 17.9457C17.6082 17.9457 17.6083 17.9457 17.6084 17.9458C17.6085 17.9458 17.6087 17.9459 17.609 17.9459C17.6096 17.9461 17.6105 17.9465 17.6118 17.9471C17.6171 17.9496 17.63 17.9571 17.6462 17.9751C17.6794 18.0121 17.7144 18.081 17.7144 18.1768H18.7144H19.7144C19.7144 17.0489 18.8682 15.9458 17.6083 15.9458V16.9458ZM18.7144 18.1768H17.7144C17.7144 18.2726 17.6794 18.3415 17.6462 18.3785C17.63 18.3965 17.6171 18.404 17.6118 18.4065C17.6105 18.4071 17.6096 18.4075 17.609 18.4077C17.6087 18.4078 17.6085 18.4079 17.6084 18.4079C17.6083 18.4079 17.6082 18.4079 17.6082 18.4079C17.6082 18.4079 17.6083 18.4079 17.6083 18.4079C17.6084 18.4079 17.6085 18.4079 17.6085 18.4079C17.6087 18.4079 17.6086 18.4079 17.6083 18.4079V19.4079V20.4079C18.8682 20.4079 19.7144 19.3047 19.7144 18.1768H18.7144ZM17.6083 19.4079V18.4079H8.28495V19.4079V20.4079H17.6083V19.4079ZM8.28495 19.4079V18.4079C7.35789 18.4079 6.44557 17.9949 5.6385 17.091L4.89256 17.757L4.14662 18.423C5.26845 19.6795 6.69774 20.4079 8.28495 20.4079V19.4079ZM4.89256 17.757H5.89256V8.88061H4.89256H3.89256V17.757H4.89256ZM4.89256 8.88061L5.16149 9.84377C7.88349 9.08375 9.94565 7.59859 11.1638 5.37308L10.2866 4.89293L9.40946 4.41278C8.49639 6.08088 6.92748 7.27419 4.62363 7.91745L4.89256 8.88061ZM10.2866 4.89293L11.164 5.37282C11.7897 4.22886 11.7669 3.19747 11.7573 2.4871L10.7574 2.50054L9.75749 2.51397C9.7668 3.20688 9.76289 3.76664 9.40931 4.41304L10.2866 4.89293ZM10.7574 2.50054L11.7573 2.48857C11.7498 1.86096 11.7737 1.68234 11.8608 1.54024L11.0083 1.01757L10.1558 0.4949C9.71412 1.21526 9.7515 2.01292 9.75747 2.5125L10.7574 2.50054ZM11.0083 1.01757L11.8608 1.54036C11.855 1.54967 11.8471 1.55978 11.837 1.56924C11.8269 1.57864 11.8169 1.58548 11.8083 1.59004C11.7904 1.59961 11.7875 1.59502 11.8099 1.59483L11.8014 0.594863L11.793 -0.405102C11.1459 -0.399644 10.5188 -0.0970527 10.1558 0.49478L11.0083 1.01757ZM11.8014 0.594863L11.8043 1.59486C11.8865 1.59462 12.0694 1.64803 12.2321 1.90402L13.0761 1.36766L13.9201 0.831303C13.4623 0.110976 12.6929 -0.40774 11.7985 -0.405133L11.8014 0.594863ZM13.0761 1.36766L12.2319 1.90374C12.4332 2.22059 13.3834 3.9299 11.7834 6.85365L12.6607 7.33371L13.5379 7.81376C15.5501 4.13672 14.4367 1.64476 13.9203 0.831577L13.0761 1.36766ZM12.6607 7.33371L11.7806 6.85891C11.5708 7.24776 11.5708 7.7171 11.7806 8.10596L12.6607 7.63116L13.5408 7.15636C13.6507 7.36019 13.6507 7.60467 13.5408 7.80851L12.6607 7.33371ZM12.6607 7.63116L11.7806 8.10596C12.0013 8.51516 12.4284 8.77917 12.9048 8.77917V7.77917V6.77917C13.1789 6.77917 13.4198 6.93217 13.5408 7.15636L12.6607 7.63116ZM12.9048 7.77917V8.77917H19.5831V7.77917V6.77917H12.9048V7.77917ZM19.5831 7.77917V8.77917C19.5834 8.77917 19.5835 8.77918 19.5833 8.77917C19.5833 8.77916 19.5832 8.77915 19.5831 8.77914C19.5831 8.77913 19.583 8.77912 19.583 8.77912C19.583 8.77912 19.5831 8.77913 19.5832 8.77917C19.5833 8.7792 19.5835 8.77926 19.5838 8.77936C19.5843 8.77954 19.5853 8.7799 19.5866 8.78053C19.5919 8.78303 19.6048 8.79055 19.621 8.80851C19.6542 8.84553 19.6892 8.91442 19.6892 9.01023H20.6892H21.6892C21.6892 7.88231 20.8429 6.77917 19.5831 6.77917V7.77917ZM20.6892 9.01023H19.6892C19.6892 9.10605 19.6542 9.17493 19.621 9.21195C19.6048 9.22991 19.5919 9.23744 19.5866 9.23993C19.5853 9.24056 19.5843 9.24092 19.5838 9.24111C19.5835 9.2412 19.5833 9.24126 19.5832 9.24129C19.5831 9.24133 19.583 9.24134 19.583 9.24134C19.583 9.24134 19.5831 9.24133 19.5831 9.24132C19.5832 9.24131 19.5833 9.2413 19.5833 9.2413C19.5835 9.24128 19.5834 9.24129 19.5831 9.24129V10.2413V11.2413C20.8429 11.2413 21.6892 10.1381 21.6892 9.01023H20.6892ZM19.5831 10.2413V9.24129H15.2695V10.2413V11.2413H19.5831V10.2413ZM15.2695 10.2413V9.24129C14.5153 9.24129 13.9876 9.8694 13.9876 10.5387H14.9876H15.9876C15.9876 10.8779 15.7135 11.2413 15.2695 11.2413V10.2413ZM14.9876 10.5387H13.9876C13.9876 11.2003 14.5078 11.8362 15.2695 11.8362V10.8362V9.83619C15.7182 9.83619 15.9876 10.2046 15.9876 10.5387H14.9876ZM15.2695 10.8362V11.8362H20.3304V10.8362V9.83619H15.2695V10.8362ZM20.3304 10.8362V11.8362C20.3307 11.8362 20.3307 11.8362 20.3306 11.8362C20.3305 11.8362 20.3304 11.8362 20.3304 11.8362C20.3303 11.8362 20.3303 11.8361 20.3303 11.8361C20.3303 11.8361 20.3303 11.8362 20.3305 11.8362C20.3306 11.8362 20.3308 11.8363 20.331 11.8364C20.3316 11.8366 20.3325 11.8369 20.3339 11.8376C20.3391 11.8401 20.3521 11.8476 20.3682 11.8655C20.4015 11.9026 20.4364 11.9714 20.4364 12.0673H21.4364H22.4364C22.4364 10.9393 21.5902 9.83619 20.3304 9.83619V10.8362ZM21.4364 12.0673H20.4364C20.4364 12.1631 20.4015 12.232 20.3682 12.269C20.3521 12.2869 20.3392 12.2945 20.3339 12.297C20.3325 12.2976 20.3316 12.2979 20.331 12.2981C20.3308 12.2982 20.3306 12.2983 20.3305 12.2983C20.3303 12.2984 20.3303 12.2984 20.3303 12.2984C20.3303 12.2984 20.3303 12.2984 20.3304 12.2984C20.3304 12.2983 20.3305 12.2983 20.3306 12.2983C20.3307 12.2983 20.3307 12.2983 20.3304 12.2983V13.2983V14.2983C21.5902 14.2983 22.4364 13.1952 22.4364 12.0673H21.4364ZM20.3304 13.2983V12.2983H15.0713V13.2983V14.2983H20.3304V13.2983ZM15.0713 13.2983V12.2983C14.3171 12.2983 13.7894 12.9264 13.7894 13.5958H14.7894H15.7894C15.7894 13.9349 15.5153 14.2983 15.0713 14.2983V13.2983ZM14.7894 13.5958H13.7894C13.7894 14.2573 14.3096 14.8932 15.0713 14.8932V13.8932V12.8932C15.52 12.8932 15.7894 13.2616 15.7894 13.5958H14.7894ZM15.0713 13.8932V14.8932H18.8345V13.8932V12.8932H15.0713V13.8932ZM18.8345 13.8932V14.8932C18.8348 14.8932 18.8348 14.8932 18.8347 14.8932C18.8346 14.8932 18.8346 14.8932 18.8345 14.8932C18.8344 14.8932 18.8344 14.8932 18.8344 14.8932C18.8344 14.8932 18.8345 14.8932 18.8346 14.8932C18.8347 14.8933 18.8349 14.8933 18.8352 14.8934C18.8357 14.8936 18.8366 14.894 18.838 14.8946C18.8433 14.8971 18.8562 14.9046 18.8723 14.9226C18.9056 14.9596 18.9405 15.0285 18.9405 15.1243H19.9405H20.9405C20.9405 13.9964 20.0943 12.8932 18.8345 12.8932V13.8932ZM19.9405 15.1243L20.8181 15.6038L20.8205 15.5993L19.943 15.1198L19.0654 14.6403L19.063 14.6448L19.9405 15.1243ZM2.16644 10.6253H3.16644V9.07403H2.16644H1.16644V10.6253H2.16644ZM2.16644 9.07403H3.16644C3.16644 9.40823 2.89707 9.77658 2.44836 9.77658V8.77658V7.77659C1.6867 7.77659 1.16644 8.41251 1.16644 9.07403H2.16644ZM2.44836 8.77658V9.77658C2.00436 9.77658 1.73027 9.4132 1.73027 9.07403H2.73027H3.73027C3.73027 8.40468 3.20259 7.77659 2.44836 7.77659V8.77658ZM2.73027 9.07403H1.73027V10.6253H2.73027H3.73027V9.07403H2.73027ZM2.73027 10.6253H1.73027C1.73027 10.2911 1.99965 9.92276 2.44836 9.92276V10.9228V11.9228C3.21 11.9228 3.73027 11.2868 3.73027 10.6253H2.73027ZM2.44836 10.9228V9.92276C2.89236 9.92276 3.16644 10.2862 3.16644 10.6253H2.16644H1.16644C1.16644 11.2947 1.69412 11.9228 2.44836 11.9228V10.9228Z" fill="var(--stroke-0, #B287FF)" mask="url(#path-1-inside-1_0_107)"/>
</g>
</svg>
