<svg preserveAspectRatio="none" width="100%" height="100%" overflow="visible" style="display: block;" viewBox="0 0 24 24" fill="none" xmlns="http://www.w3.org/2000/svg">
<g id="home">
<path id="Vector" opacity="0.9" d="M20.83 8.01L14.28 2.77C13 1.75 11 1.74 9.73 2.76L3.18 8.01C2.24 8.76 1.67 10.26 1.87 11.44L3.13 18.98C3.42 20.67 4.99 22 6.7 22H17.3C18.99 22 20.59 20.64 20.88 18.97L22.14 11.43C22.32 10.26 21.75 8.76 20.83 8.01Z" fill="var(--fill-0, #01A74B)"/>
<path id="Vector_2" d="M12 19C10.9067 19 10 18.6222 10 18.1667V14.8333C10 14.3778 10.9067 14 12 14C13.0933 14 14 14.3778 14 14.8333V18.1667C14 18.6222 13.0933 19 12 19Z" fill="var(--fill-0, white)"/>
<g id="Vector_3" opacity="0">
</g>
</g>
</svg>
