<svg preserveAspectRatio="none" width="100%" height="100%" overflow="visible" style="display: block;" viewBox="0 0 16 16" fill="none" xmlns="http://www.w3.org/2000/svg">
<g id="bx:bx-wifi">
<path id="Vector" d="M8.00128 4.00521C10.3593 4.00521 12.5593 4.90721 14.1966 6.54454L15.1393 5.60188C13.2506 3.71254 10.7153 2.67188 8.00128 2.67188C5.28728 2.67254 2.75195 3.71254 0.863281 5.60188L1.80595 6.54454C3.44328 4.90721 5.64328 4.00521 8.00128 4.00521ZM11.7819 9.54321C9.73262 7.49388 6.26995 7.49388 4.22061 9.54321L5.16328 10.4859C6.70128 8.94788 9.30128 8.94788 10.8393 10.4859L11.7819 9.54321Z" fill="var(--fill-0, white)"/>
<path id="Vector_2" d="M13.6237 7.52919C10.5757 4.47985 5.423 4.47985 2.375 7.52919L3.31767 8.47185C5.85567 5.93385 10.143 5.93385 12.681 8.47185L13.6237 7.52919Z" fill="var(--fill-0, white)"/>
<path id="Vector_3" d="M8.0013 13.3385C8.73768 13.3385 9.33464 12.7416 9.33464 12.0052C9.33464 11.2688 8.73768 10.6719 8.0013 10.6719C7.26492 10.6719 6.66797 11.2688 6.66797 12.0052C6.66797 12.7416 7.26492 13.3385 8.0013 13.3385Z" fill="var(--fill-0, white)"/>
</g>
</svg>
